<?xml version="1.0" encoding="utf-8"?>
<!-- Generator: Adobe Illustrator 27.5.0, SVG Export Plug-In . SVG Version: 6.00 Build 0)  -->
<svg version="1.1" id="Contact_us_with_call_center_cartoon"
	 xmlns="http://www.w3.org/2000/svg" xmlns:xlink="http://www.w3.org/1999/xlink" x="0px" y="0px" viewBox="0 0 4000 3000"
	 style="enable-background:new 0 0 4000 3000;" xml:space="preserve">
<g id="Contact_us_with_call_center_cartoon_1_">
	<g id="cartoon_character">
		<g>
			<defs>
				<path id="backcolor" d="M3759.21,1620.032c-65.12,746.045-519.352,1177.514-1747.066,1177.514
					S213.727,2346.442,222.461,1655.312c9.101-720.102,226.219-1451.651,1703.943-1452.855
					C3844.645,200.894,3819.511,929.197,3759.21,1620.032z"/>
			</defs>
			<use xlink:href="#backcolor"  style="overflow:visible;fill:#FBB03B;"/>
			<clipPath id="backcolor_00000147921217842879552540000000525928460683360912_">
				<use xlink:href="#backcolor"  style="overflow:visible;"/>
			</clipPath>
			<path style="clip-path:url(#backcolor_00000147921217842879552540000000525928460683360912_);fill:#BC842C;" d="M3523.595,586.99
				c242.637,270.248,221.003,633.273,190.17,986.504c-65.12,746.045-519.352,1177.514-1747.065,1177.514
				c-724.975,0-1220.824-157.314-1503.573-428.451c273.445,299.597,783.504,474.989,1549.017,474.989
				c1227.714,0,1681.945-431.469,1747.066-1177.514C3791.849,1246.098,3814.174,861.192,3523.595,586.99z"/>
			<g style="clip-path:url(#backcolor_00000147921217842879552540000000525928460683360912_);">
				<g>
					<g>
						<g>
							<path style="fill:#F4CCB5;" d="M2105.87,2526.309c0,0-7.728-11.937-11.047-23.393c-3.319-11.456,0.878-42.802-10.674-39.412
								c-11.552,3.389-9.828,28.168-10.535,39.42c-0.708,11.251-3.974,32.412-4.379,35.286S2109.008,2536.276,2105.87,2526.309z"/>
							<path style="fill:#F4CCB5;" d="M2076.856,2508.94c0,0-6.873,11.603-27.903-0.636c-27.587-16.056-24.466-12.138-43.918-24.376
								c-15.939-10.029-20.928,1.385-7.51,13.75c11.121,10.248,22.35,18.587,33.792,28.528c6.428,5.584,4.398,8.109-4.06,7.433
								c-5.577-0.446-48.988-17.517-59.53-13.268c-8.023,3.234-2.128,12.66,12.332,16.744c13.339,3.767,49.587,17.749,49.318,20.891
								c-0.269,3.143-51.417-8.965-60.984-7.043c-9.568,1.923-6.585,9.927,7.824,13.924c10.317,2.862,57.964,13.304,59.579,18.807
								c2.357,8.032-22.517,13.729-31.207,19.966c-6.704,4.812-2.542,9.334,13.497,3.715c19.894-6.97,20.505-2.216,39.878-6.02
								c17.775-3.491,45.823-3.744,57.453-25.092C2128.03,2553.11,2099.592,2499.556,2076.856,2508.94z"/>
						</g>
						<path style="fill:#E0A089;" d="M2056.039,2538.583c-4.249,6.664-7.581,13.912-9.847,21.484
							c-0.676,2.26-1.235,4.804-0.131,6.889c1.548,2.923,5.44,3.446,8.743,3.614c9.727,0.495,19.454,0.99,29.181,1.485
							c-12.584-11.744-18.569-30.066-15.698-46.998c-0.107-0.023-0.216-0.034-0.325-0.032c-1.17,0.023-2.109,0.93-2.9,1.793
							C2061.719,2530.468,2058.7,2534.411,2056.039,2538.583z"/>
					</g>
					<path style="fill:#202930;" d="M2115.151,2528.193c0,0,157.931,58.527,168.382,88.476
						c8.456,24.234-7.106,87.881-102.101,46.859c-92.973-40.149-109.463-50.314-109.463-50.314L2115.151,2528.193z"/>
					<path style="fill:#202930;" d="M2359.813,2487.953c0,0-25.964-22.542-61.252,12.219c-35.287,34.76-61.522,61.25-89.688,95.471
						s16.25,89.613,57.37,74.861s80.71-47.77,80.71-47.77L2359.813,2487.953z"/>
				</g>
				<g>
					<g>
						<g>
							<rect x="2385.406" y="2377.511" style="fill:#E6967A;" width="209.816" height="184.263"/>
						</g>
					</g>
				</g>
				<g>
					<g>
						<path style="fill:#E6E6E6;" d="M2623.384,2748.464c-4.213-34.962,37.943-204.368,34.172-242.638
							c-2.592-26.308-66.083-44.245-66.083-44.245s-40.399,48.087-106.588,48.087c-66.189,0-99.7-44.688-99.7-44.688
							c-74.623,19.074-59.569,29.06-59.351,89.896c1.6,24.829,22.324,115.32,33.89,193.587H2623.384z"/>
						<path style="fill:#C1272D;" d="M2521.283,2523.936c-10.905-10.905-25.297-14.589-36.398-14.589
							c-11.101,0-25.494,3.684-36.398,14.589c0,0,8.142,25.309,18.199,35.367l-18.199,147.362l36.398,38.117l36.398-38.117
							l-18.199-147.362C2513.141,2549.245,2521.283,2523.936,2521.283,2523.936z"/>
						<g>
							<g>
								<path style="fill:#F2F2F2;" d="M2591.473,2461.581c0,0-14.58,15.073-39.316,30.336
									c-24.772,15.285-69.656,17.119-69.656,17.119c10.395,3.057,31.074,4.334,36.175,13.261
									c11.071,19.374,0.821,39.476,0.821,39.476s65.995-53.435,69.175-67.876
									C2591.852,2479.456,2591.473,2461.581,2591.473,2461.581z"/>
							</g>
							<g>
								<path style="fill:#F2F2F2;" d="M2383.249,2463.249c0,0,17.684,16.339,42.42,31.602
									c24.772,15.285,61.456,14.211,61.456,14.211c-10.395,3.057-27.929,4.309-33.03,13.236
									c-11.071,19.374-0.821,39.476-0.821,39.476s-65.996-53.435-69.175-67.876
									C2380.919,2479.456,2383.249,2463.249,2383.249,2463.249z"/>
							</g>
						</g>
					</g>
					<path style="fill:#202930;" d="M2324.258,2836.648h332.858c-3.067-76.713,6.097-311.45,4.152-331.187
						c-2.762-28.032-62.031-45.563-68.781-47.469l-2.317-0.652l-1.551,1.84c-0.395,0.468-63.701,166.441-103.735,166.441
						s-99.31-161.119-99.595-161.533l-1.475-2.152l-2.528,0.646c-35.135,8.981-49.079,15.648-57.203,25.478
						C2315.281,2498.711,2325.315,2756.677,2324.258,2836.648z"/>
					<path style="fill:#181F24;" d="M2644.443,2652.078c0,0-65.229,72.234-68.274,76.802c-29.636,19.93-31.297,18.678-35.865,44.565
						c-61.671,7.614-197.876,1.463-198.638-0.821c-6.852-51.773-8.375-102.785-9.136-153.797
						c-0.654-24.177-1.317-48.911-12.077-70.84c-0.338,83.779,4.559,231.572,3.804,288.662h332.858
						c-2.25-56.253,2.079-197.478,3.781-276.59c-0.58,0.049-1.158,0.092-1.738,0.143
						C2634.795,2579.236,2647.489,2623.907,2644.443,2652.078z"/>
					<path style="fill:#181F24;" d="M2588.62,2457.34c0,0,4.508-2.641,7.63,4.242s-16.127,129.941-16.127,129.941l-21.849-13.467
						v22.89c0,0-54.798,24.675-71.723,24.675c0,0,34.761-31.714,52.284-63.847C2556.358,2529.641,2588.62,2457.34,2588.62,2457.34z"
						/>
					<path style="fill:#181F24;" d="M2385.056,2459.007c0,0-4.509-2.641-7.63,4.241c-3.121,6.882,16.127,128.274,16.127,128.274
						l21.849-13.467v22.89c0,0,52.558,24.675,69.483,24.675c0,0-32.521-31.714-50.044-63.847
						C2417.318,2529.641,2385.056,2459.007,2385.056,2459.007z"/>
				</g>
				<g>
					<g>
						<g>
							<g>
								<path style="fill:#F4CCB5;" d="M2951.087,2104.88c16.123-20.439,45.496-29.618,73.012-25.994s52.864,18.836,71.365,38.808
									c32.134,34.688,44.228,84.498,30.893,127.232c-13.335,42.734-51.651,76.956-97.872,87.415
									c-24.75,5.6-51.977,4.531-75.59-5.923c-23.613-10.455-43.007-30.948-48.17-54.759L2951.087,2104.88z"/>
							</g>
							<path style="fill:#E6967A;" d="M3026.589,2243.995c-2.438-2.589-0.14-8.079,1.804-15.684
								c2.052-7.55,3.616-17.719,1.45-28.021c-2.204-10.301-7.856-19.391-12.887-25.88c-4.952-6.574-9.366-11.058-8.142-14.195
								c0.601-1.487,2.64-2.396,6.005-2.36c3.356,0.026,7.981,1.15,13.178,3.773c5.191,2.606,10.837,6.844,15.764,12.755
								c4.925,5.88,9.018,13.531,10.902,22.196c1.794,8.675,1.099,17.04-1.104,23.986c-2.193,6.975-5.748,12.589-9.549,16.54
								c-3.799,3.969-7.677,6.365-10.816,7.363C3030.052,2245.477,3027.764,2245.216,3026.589,2243.995z"/>
						</g>
						<g>
							<g>
								<path style="fill:#F4CCB5;" d="M2076.529,1996.368c-6.134-25.3-29.006-45.888-55.529-54.065
									c-26.523-8.176-55.903-4.917-81.047,5.524c-43.669,18.134-75.427,58.367-81.122,102.77
									c-5.694,44.403,14.867,91.483,52.52,120.258c20.162,15.408,45.356,25.787,71.178,26.128
									c25.822,0.341,51.993-10.201,66.613-29.692L2076.529,1996.368z"/>
							</g>
							<path style="fill:#E6967A;" d="M1949.905,2091.342c3.295-1.337,3.495-7.285,4.899-15.008
								c1.282-7.718,4.099-17.613,10.364-26.074c6.297-8.444,15.224-14.35,22.503-18.152c7.242-3.911,13.123-6.147,13.319-9.508
								c0.074-1.602-1.401-3.278-4.475-4.648c-3.061-1.375-7.734-2.282-13.552-2.065c-5.805,0.205-12.704,1.703-19.647,5.022
								c-6.928,3.292-13.838,8.54-19.163,15.63c-5.247,7.138-8.103,15.031-8.996,22.262c-0.915,7.254-0.023,13.839,1.784,19.014
								c1.798,5.191,4.324,8.986,6.762,11.201C1946.139,2091.246,1948.328,2091.962,1949.905,2091.342z"/>
						</g>
					</g>
					<path style="fill:#F4CCB5;" d="M2668.106,2483.637c71.194-24.596,147.542-60.781,209.394-110.088
						c53.743-42.994,89.103-91.246,119.188-140.866c22.076-48.37,159.279-440.618,39.118-525.804
						c-103.302-72.323-153.073-82.288-384.938-132.538c-232.983-52.39-346.35-44.266-494.177,20.753
						c-159.957,70.354-165.87,446.491-156.726,508.538c9.953,65.054,27.269,130.481,66.846,191.835
						c45.612,70.518,112.385,124.598,176.968,161.063c65.021,36.623,133.919,55.562,207.495,59.364
						C2524.882,2519.654,2596.559,2508.124,2668.106,2483.637z"/>
					<path style="fill:#E0A089;" d="M3035.807,1706.879c-103.302-72.323-153.073-82.288-384.938-132.538
						c-232.982-52.39-346.35-44.266-494.177,20.753c-104.321,45.883-143.118,221.823-154.952,355.879
						c82.145,1.039,163.624-40.161,234.184-82.586c54.685-32.3,108.624-130.686,134.16-187.596
						c1.061,192.169,456.904,392.68,690.011,347.545C3089.399,1901.473,3103.771,1755.062,3035.807,1706.879z"/>
					<g>
						<g>
							<g>
								
									<ellipse transform="matrix(0.0703 -0.9975 0.9975 0.0703 407.6097 4767.5015)" style="fill:#E8948B;" cx="2761.389" cy="2165.083" rx="115.495" ry="134.642"/>
							</g>
							<g>
								
									<ellipse transform="matrix(0.0703 -0.9975 0.9975 0.0703 -65.6255 4173.8994)" style="fill:#E8948B;" cx="2206.328" cy="2122.156" rx="115.495" ry="138.893"/>
							</g>
						</g>
						<g>
							
								<ellipse transform="matrix(0.0769 -0.997 0.997 0.0769 157.6463 4065.9092)" style="fill:#FFFFFF;" cx="2274.512" cy="1947.822" rx="122.742" ry="103.509"/>
							<g>
								
									<ellipse transform="matrix(0.0769 -0.997 0.997 0.0769 152.0079 4074.2993)" style="fill:#5E391F;" cx="2276.222" cy="1955.062" rx="105.74" ry="92.278"/>
								<g>
									<path style="fill:#FFFFFF;" d="M2246.853,1927.744c-1.017-3.423-4.678-5.576-10.065-5.126
										c-5.33,0.406-12.244,3.686-18.027,9.938c-5.778,6.258-9.029,13.979-9.686,20.051c-0.698,6.134,0.971,10.443,3.897,11.8
										c2.997,1.4,6.622-0.021,10.299-2.446c3.695-2.483,7.528-5.97,11.368-10.155c3.865-4.155,7.123-8.34,9.496-12.424
										C2246.459,1935.315,2247.903,1931.251,2246.853,1927.744z"/>
								</g>
							</g>
						</g>
						<g>
							
								<ellipse transform="matrix(0.0769 -0.997 0.997 0.0769 541.9388 4540.8359)" style="fill:#FFFFFF;" cx="2723.134" cy="1977.757" rx="122.742" ry="103.509"/>
							<g>
								
									<ellipse transform="matrix(0.0769 -0.997 0.997 0.0769 534.3892 4546.8145)" style="fill:#5E391F;" cx="2722.589" cy="1984.824" rx="105.74" ry="92.278"/>
								<g>
									<path style="fill:#FFFFFF;" d="M2755.798,1962.33c1.53-3.226,5.477-4.793,10.731-3.523
										c5.205,1.218,11.535,5.519,16.291,12.584c4.75,7.07,6.78,15.198,6.498,21.298c-0.25,6.169-2.56,10.17-5.659,11.063
										c-3.177,0.924-6.54-1.035-9.803-3.996c-3.271-3.02-6.524-7.053-9.678-11.777c-3.183-4.698-5.76-9.333-7.48-13.733
										C2755.027,1969.872,2754.222,1965.635,2755.798,1962.33z"/>
								</g>
							</g>
						</g>
						<path style="fill:#F1775B;" d="M2532.118,2074.997c2.277,2.287,2.763,5.892,1.78,8.981c-0.289,0.951-0.698,1.958-1.235,3.014
							c-0.55,1.023-1.261,2.018-2.09,3.082c-1.83,2.296-4.17,4.22-6.783,5.84c-1.412,0.944-2.973,1.617-4.654,2.379
							c-1.681,0.71-3.491,1.25-5.41,1.765c-31.778,7.342-59.594-23.711-48.84-54.481c0.721-1.852,1.454-3.592,2.344-5.186
							c0.94-1.587,1.779-3.066,2.872-4.367c1.893-2.421,4.064-4.538,6.544-6.107c1.147-0.709,2.214-1.307,3.291-1.742
							c1.108-0.418,2.154-0.715,3.13-0.899c11.683-2.169,11.721,11.805,14.485,19.503c0.167,0.669,0.52,1.426,0.716,2.084
							c0.24,0.681,0.557,1.378,0.782,2.023c1.028,2.328,2.229,4.813,3.71,6.628c0.632,0.769,1.156,1.331,1.56,1.845
							c0.467,0.458,0.969,1.04,1.665,1.751c1.644,1.671,3.98,3.133,6.184,4.409c0.617,0.294,1.275,0.685,1.926,0.998
							c0.633,0.266,1.347,0.699,1.994,0.938C2521.24,2070.083,2527.865,2070.927,2532.118,2074.997z"/>
						<path style="fill:#B83E3E;" d="M2349.201,2157.491c68.302,43.851,157.177,46.838,227.7,6.306
							c18.762-10.783,35.891-24.168,50.723-39.93c5.99-6.365-2.87-16.835-8.918-10.408
							c-51.088,54.288-128.858,77.922-201.319,59.111c-21.411-5.558-41.766-14.398-60.379-26.348
							C2349.586,2141.458,2341.768,2152.719,2349.201,2157.491L2349.201,2157.491z"/>
						<path style="fill:#5E391F;" d="M2680.424,1807.206c45.056,1.368,89.109,18.845,122.341,49.447
							c6.243,5.749,16.431-2.864,10.122-8.673c-35.849-33.012-82.628-52.583-131.438-54.064
							C2672.902,1793.656,2671.828,1806.945,2680.424,1807.206L2680.424,1807.206z"/>
						<path style="fill:#5E391F;" d="M2220.58,1810.003c40.38-20.034,87.47-25.386,131.204-14.064
							c8.215,2.127,13.141-10.271,4.838-12.421c-47.178-12.214-97.659-7.422-141.404,14.281
							C2207.559,1801.599,2212.877,1813.825,2220.58,1810.003L2220.58,1810.003z"/>
					</g>
					<g>
						<g>
							<path style="fill:#7D4C29;" d="M3064.282,1604.714c-10.632-19.232-22.416-37.847-35.469-55.708
								c-17.703-24.223-38.079-46.829-60.542-67.135c-55.934-127.285-202.315-196.576-343.942-215.961
								c-186.533-25.532-349.397,30.472-505.411,127.798c-116.479,72.663-161.452,141.107-231.165,290.244
								c-122.455,366.926,118.012,452.89,118.012,452.89s2.029-75.92,20.71-174.424c65.395-10.328,152.547-62.803,195.456-114.677
								c53.705-64.925,125.713-188.884,155.862-267.563c3.062,98.181,46.385,233.692,140.543,271.786
								c-13.861-40.455-18.094-84.174-12.251-126.536c44.9,87.164,124.42,155.882,217.172,187.673
								c57.04,19.55,118.692,24.978,178.397,16.673c46.709,18.04,97.238,34.707,151.84,49.395l-14.804,149.873
								c0,0,85.522-193.079,87.912-280.361C3129.095,1757.603,3108.784,1685.217,3064.282,1604.714z"/>
							<g>
								<path style="fill:#704425;" d="M3081.803,1487.392c-2.876,0.795-6.085,0.004-8.265-2.326
									c-32.015-34.225-85.478-47.982-130.056-33.469c-4.328,1.43-9.027-0.959-10.444-5.311c-1.417-4.35,0.959-9.027,5.311-10.444
									c51.26-16.718,110.458-1.472,147.291,37.905c3.126,3.342,2.951,8.585-0.391,11.711
									C3084.237,1486.403,3083.051,1487.047,3081.803,1487.392z"/>
								<path style="fill:#704425;" d="M2912.935,1419.531c-2.064,0.57-4.346,0.345-6.347-0.81
									c-3.963-2.286-5.322-7.354-3.035-11.317c21.36-37.021,62.768-61.756,105.492-63.029c4.574-0.135,8.391,3.463,8.528,8.036
									c0.135,4.574-3.472,8.395-8.036,8.528c-37.111,1.1-73.078,22.59-91.631,54.747
									C2916.773,1417.648,2914.958,1418.971,2912.935,1419.531z"/>
							</g>
						</g>
						<g>
							<path style="fill:#704425;" d="M3036.838,1980.169c-0.987,0.273-2.048,0.346-3.127,0.178
								c-105.013-16.324-198.856-90.434-239.075-188.805c-1.559-3.812,0.269-8.166,4.081-9.724c3.817-1.553,8.166,0.268,9.725,4.08
								c38.282,93.632,127.605,164.174,227.561,179.712c4.07,0.633,6.855,4.445,6.222,8.515
								C3041.759,1977.114,3039.577,1979.412,3036.838,1980.169z"/>
							<path style="fill:#704425;" d="M2741.546,1927.502c-1.373,0.379-2.867,0.37-4.32-0.11
								c-77.929-25.757-147.831-74.776-202.145-141.758c-54.315-66.981-87.834-145.501-96.934-227.071
								c-0.456-4.094,2.506-7.775,6.583-8.238c4.093-0.456,7.781,2.491,8.237,6.584c8.783,78.728,41.183,154.571,93.698,219.331
								c52.513,64.76,120.026,112.131,195.24,136.991c3.909,1.292,6.032,5.51,4.74,9.42
								C2745.835,1925.11,2743.867,1926.861,2741.546,1927.502z"/>
							<path style="fill:#704425;" d="M2454.866,1805.927c-2.751,0.76-5.817-0.102-7.748-2.449
								c-56.395-68.504-68.775-163.619-78.722-240.045c-0.531-4.084,2.331-7.817,6.433-8.357c4.084-0.531,7.824,2.349,8.357,6.432
								c9.701,74.534,21.775,167.294,75.447,232.492c2.617,3.179,2.161,7.878-1.017,10.496
								C2456.781,1805.182,2455.843,1805.657,2454.866,1805.927z"/>
							<path style="fill:#704425;" d="M2040.668,1966.378c-1.698,0.469-3.39,0.924-5.093,1.369c-3.984,1.041-8.058-1.346-9.1-5.33
								c-1.031-3.951,1.305-7.989,5.228-9.072c0.034-0.01,0.069-0.019,0.103-0.028c60.446-15.806,117.593-47.544,165.189-91.811
								c47.593-44.266,83.391-98.94,103.522-158.112c1.327-3.898,5.564-5.984,9.461-4.657c3.899,1.326,5.984,5.562,4.659,9.461
								c-20.923,61.499-58.091,118.288-107.486,164.229C2159.095,1917.123,2101.627,1949.537,2040.668,1966.378z"/>
							<path style="fill:#704425;" d="M1941.536,1836.579c-1.299,0.359-2.71,0.37-4.098-0.041c-3.949-1.169-6.202-5.318-5.032-9.267
								c30.075-101.532,87.498-196.034,166.061-273.29c78.565-77.256,174.018-133.085,276.041-161.451
								c0.005-0.001,0.009-0.003,0.012-0.003c3.965-1.095,8.068,1.226,9.17,5.19c1.103,3.968-1.22,8.079-5.186,9.182
								c-202.589,56.327-372.08,222.996-431.8,424.608C1945.948,1834.068,1943.934,1835.917,1941.536,1836.579z"/>
							<path style="fill:#704425;" d="M3004.923,1755.067c-0.079,0.022-0.161,0.043-0.241,0.062
								c-4.004,0.966-8.032-1.496-8.999-5.499c-40.97-169.799-174.907-314.01-341.22-367.394c-3.921-1.259-6.08-5.458-4.821-9.379
								c1.262-3.922,5.462-6.079,9.379-4.821c171.158,54.939,308.996,203.351,351.161,378.095
								C3011.128,1750.054,3008.783,1754,3004.923,1755.067z"/>
							<path style="fill:#704425;" d="M2812.794,1773.755c17.221,23.114,37.081,44.161,58.909,62.973
								c21.39,18.434,44.788,34.534,69.666,47.895c14.484,7.779,29.349,14.758,44.682,20.701c4.373,1.695,10.031-0.627,11.543-5.195
								c1.534-4.632-0.53-9.734-5.195-11.543c-13.069-5.065-25.856-10.841-38.29-17.312c-0.731-0.381-1.46-0.765-2.19-1.149
								c-0.411-0.216-1.503-0.756,0.382,0.207c-0.366-0.187-0.728-0.39-1.089-0.585c-1.633-0.88-3.259-1.772-4.879-2.676
								c-2.97-1.656-5.917-3.353-8.842-5.088c-6.027-3.575-11.957-7.314-17.781-11.21c-11.563-7.736-22.711-16.094-33.378-25.026
								c-2.686-2.25-5.343-4.535-7.967-6.856c-1.235-1.092-2.463-2.193-3.684-3.301c-0.611-0.554-1.219-1.11-1.826-1.668
								c-0.299-0.275-0.623-0.547-0.909-0.838c1.723,1.754,0.22,0.203-0.11-0.106c-5.114-4.791-10.096-9.721-14.941-14.784
								c-10.831-11.318-20.953-23.303-30.313-35.865c-2.801-3.759-9.15-4.311-12.606-1.182
								C2810.229,1764.542,2809.793,1769.728,2812.794,1773.755L2812.794,1773.755z"/>
						</g>
						<path style="fill:#704425;" d="M2886.3,1365.227c-75.745-57.171-166.608-90.484-260.298-102.958
							c-96.291-12.82-195.05-4.97-288.824,19.929c-93.42,24.805-183.552,66.641-258.853,127.705
							c-76.26,61.842-137.035,142.605-176.878,232.246c-39.505,88.88-59.093,186.928-53.135,284.209
							c0.732,11.944,1.865,23.858,3.353,35.731c1.083,8.642,14.787,8.715,13.694-0.007c-11.878-94.757,1.079-191.399,34.654-280.639
							c33.814-89.875,88.709-171.904,159.294-237.037c70.231-64.807,156.234-110.312,247.039-138.997
							c90.691-28.649,186.919-40.835,281.836-33.461c91.928,7.141,183.205,33.642,261.023,83.883
							c9.403,6.071,18.608,12.46,27.542,19.203C2883.681,1380.27,2893.335,1370.537,2886.3,1365.227L2886.3,1365.227z"/>
						<g>
							<path style="fill:#7D4C29;" d="M2334.548,1382.359c-68.507-12.172-127.096-68.289-142.21-136.207
								c108.353,38.385,226.159,49.763,339.856,32.825L2334.548,1382.359z"/>
							<path style="fill:#704425;" d="M2413.282,1282.565c-29.009,1.423-58.184,0.116-86.929-4.077
								c-29.009-4.232-57.614-11.245-85.284-20.931c-15.403-5.392-30.482-11.641-45.198-18.695
								c-3.583-1.718-7.423,1.198-6.573,5.125c9.134,42.151,32.885,80.98,65.885,108.698c9.37,7.871,19.46,14.885,30.144,20.854
								c5.073,2.834,9.528-5.01,4.45-7.847c-36.115-20.179-65.003-52.675-81.215-90.72c-3.342-7.843-6.107-15.931-8.322-24.165
								c24.093,10.938,49.11,19.836,74.722,26.484c28.869,7.492,58.492,12.179,88.261,14.004
								c16.668,1.022,33.385,1.112,50.065,0.294C2419.075,1291.304,2419.087,1282.28,2413.282,1282.565z"/>
						</g>
					</g>
					<path style="fill:#704425;" d="M2963.417,1486.855c31.232,29.195,58.981,62.021,82.269,97.885
						c23.972,36.918,43.237,76.882,56.183,118.984c12.423,40.4,18.952,82.477,18.623,124.764
						c-0.302,38.778-6.513,77.166-17.04,114.446c-11.527,40.817-27.94,80.065-46.6,118.096c-2.492,5.079-5.028,10.137-7.595,15.179
						c-1.704,3.346-0.751,7.571,2.62,9.482c3.162,1.793,7.771,0.74,9.482-2.62c20.074-39.421,38.118-80.082,51.315-122.357
						c11.946-38.267,19.642-77.93,21.373-118.025c1.834-42.477-3.163-85.259-14.083-126.328
						c-11.696-43.989-30.2-86.195-53.764-125.102c-22.765-37.588-50.344-72.379-81.56-103.3c-3.783-3.747-7.624-7.435-11.514-11.071
						C2966.596,1470.783,2956.852,1480.718,2963.417,1486.855L2963.417,1486.855z"/>
				</g>
				<g>
					<path style="fill:#F4CCB5;" d="M2625.606,2803.017c-18.663-1.487-37.358-5.762-53.104-15.888
						c-7.962-5.12-15.954-13.358-14.104-22.641c1.054-5.287,5.105-9.398,9.07-13.05c8.636-7.955,17.013-16.597,27.361-22.144
						c8.145-4.365,44.294,27.306,44.294,27.306S2639.201,2804.099,2625.606,2803.017z"/>
					<path style="fill:#202930;" d="M2644.145,2780.539c25.453-16.458,65.538-44.044,90.99-60.501
						c11.569-7.48,23.923-15.947,28.209-29.04c4.881-14.912-2.234-30.83-9.182-44.898c-23.53-47.644-52.264-94.822-83.08-142.41
						c-10.969-16.94-25.742-17.327-39.406,0.918s-8.447,101.787-8.447,101.787l34.308,43.339
						c-23.445,27.598-40.767,51.643-68.02,79.705L2644.145,2780.539z"/>
				</g>
				<g id="headache_1_">
					<g>
						<path style="fill:#808080;" d="M3115.575,1927.389c0.034-0.601,3.292-61.09-12.133-143.735
							c-14.088-75.484-47.141-185.625-124.604-281.672l39.887-32.169c84.567,104.855,120.301,224.29,135.384,306.019
							c16.323,88.435,12.779,151.929,12.62,154.588L3115.575,1927.389z"/>
					</g>
					<g>
						<g>
							<path style="fill:#1A1A1A;" d="M3088.339,2108.413c-14.985,139.909-24.202,252.575-72.106,247.444
								c-47.904-5.131-41.566-119.172-26.581-259.081c14.986-139.909,32.945-252.706,80.849-247.575
								C3118.404,1854.332,3103.325,1968.504,3088.339,2108.413z"/>
						</g>
						<g>
							<g>
								<g>
									<path style="fill:#666666;" d="M3116.526,2326.734l9.612,1.03c12.831,1.374,24.347-7.913,25.721-20.744l37.75-352.439
										c1.374-12.831-7.913-24.346-20.744-25.721l-9.612-1.03L3116.526,2326.734z"/>
								</g>
								<g>
									
										<rect x="3067.252" y="1916.131" transform="matrix(0.9943 0.1065 -0.1065 0.9943 244.1856 -319.3281)" style="fill:#CCCCCC;" width="89.393" height="421.008"/>
								</g>
							</g>
						</g>
					</g>
					<g>
						<path style="fill:#808080;" d="M1914.759,1798.771c0.094-0.595,9.721-60.402,42.299-137.905
							c29.755-70.788,85.385-171.431,181.433-248.893l-32.169-39.887c-104.856,84.566-165.073,193.723-197.124,270.404
							c-34.682,82.972-44.666,145.776-45.073,148.409L1914.759,1798.771z"/>
					</g>
					<g>
						<g>
							<g>
								<path style="fill:#1A1A1A;" d="M2174.566,2344.976c-0.009-0.001-0.016-0.002-0.026-0.003l-115.868-12.917
									c-0.647-0.067-1.302-0.136-1.942-0.204c-74.801-8.01-107.15-26.879-126.994-42.468
									c-45.333-35.614-65.975-99.211-50.195-154.657c0.911-3.194,4.217-5.042,7.433-4.139c3.194,0.909,5.047,4.236,4.138,7.431
									c-14.478,50.874,4.46,109.228,46.055,141.905c35.471,27.866,82.004,35.974,122.791,40.171l115.915,12.922
									c3.302,0.368,5.679,3.342,5.311,6.644C2180.817,2342.955,2177.858,2345.329,2174.566,2344.976z"/>
							</g>
							<g>
								
									<ellipse transform="matrix(0.1065 -0.9943 0.9943 0.1065 -395.3707 4238.5249)" style="fill:#1A1A1A;" cx="2160.691" cy="2339.252" rx="34.147" ry="56.215"/>
							</g>
						</g>
						<g>
							<path style="fill:#1A1A1A;" d="M1911.446,1982.357c-14.986,139.909-29.839,251.971,18.065,257.102
								s65.863-107.666,80.849-247.575c14.986-139.909,21.323-253.951-26.581-259.082
								C1935.874,1727.672,1926.431,1842.448,1911.446,1982.357z"/>
						</g>
						<g>
							<g>
								<g>
									<path style="fill:#666666;" d="M1837.66,2189.756l-9.612-1.03c-12.831-1.374-22.118-12.89-20.744-25.721l37.749-352.439
										c1.374-12.831,12.89-22.118,25.721-20.744l9.612,1.03L1837.66,2189.756z"/>
								</g>
								<g>
									
										<rect x="1839.816" y="1784.662" transform="matrix(-0.9943 -0.1065 0.1065 -0.9943 3545.8223 4179.6851)" style="fill:#CCCCCC;" width="89.393" height="421.008"/>
								</g>
							</g>
						</g>
					</g>
					<g>
						<g>
							<path style="fill:#1A1A1A;" d="M3076.597,1544.715c-97.292-176.349-276.183-304.017-491.648-327.095
								c-216.274-23.165-418.843,64.469-551.249,217.271l69.1,37.477c31.591-34.372,67.486-64.958,106.981-90.739
								c53.15-34.692,111.185-59.948,172.493-75.063c63.436-15.641,128.888-20.006,194.538-12.974
								c65.65,7.032,128.693,25.159,187.375,53.88c56.717,27.756,108.087,64.731,152.683,109.892
								c32.599,33.012,60.81,69.83,84.18,109.365L3076.597,1544.715z"/>
						</g>
					</g>
				</g>
			</g>
		</g>
	</g>
	<g id="symbols">
		<g>
			<g>
				
					<ellipse transform="matrix(0.7071 -0.7071 0.7071 0.7071 -730.6033 1074.0575)" style="fill:#BC842C;" cx="931.2" cy="1418.945" rx="110.385" ry="110.385"/>
				
					<ellipse transform="matrix(0.7071 -0.7071 0.7071 0.7071 -729.5811 1069.1238)" style="fill:#FFFFFF;" cx="925.756" cy="1415.244" rx="106.684" ry="106.684"/>
			</g>
			<path style="fill:#F8B03B;" d="M948.836,1424.039l-18.511-19.715c5.227-8.664,5.787-19.84,0.474-29.228l0,0
				c-7.831-13.837-25.559-18.751-39.396-10.92l0,0c-12.291,6.956-17.533,21.719-13.065,34.629c0.653,2.614,1.905,5.102,3.737,7.272
				c1.452,2.045,54.297,58.432,56.735,60.056c2.244,1.667,4.793,2.751,7.443,3.253c5.505,1.331,11.502,0.672,16.79-2.32h0
				c11.059-6.259,14.987-20.428,8.728-31.488v0C967.05,1427.236,957.828,1422.955,948.836,1424.039z"/>
		</g>
		<g>
			<g>
				
					<ellipse transform="matrix(0.7071 -0.7071 0.7071 0.7071 -922.9027 1153.7106)" style="fill:#BC842C;" cx="931.2" cy="1690.897" rx="110.385" ry="110.385"/>
				
					<ellipse transform="matrix(0.7071 -0.7071 0.7071 0.7071 -921.8806 1148.7769)" style="fill:#FFFFFF;" cx="925.756" cy="1687.197" rx="106.684" ry="106.684"/>
			</g>
			<g>
				<path style="fill:#F8B03B;" d="M957.706,1639.904h-54.754c-20.208,0-36.742,16.534-36.742,36.742v28.503
					c0,20.208,16.534,36.742,36.742,36.742h54.754c20.208,0,36.742-16.534,36.742-36.742v-28.503
					C994.448,1656.438,977.914,1639.904,957.706,1639.904z M979.519,1668.024l-47.468,26.017c-0.536,0.294-1.13,0.441-1.723,0.441
					c-0.596,0-1.191-0.148-1.729-0.445l-47.234-26.017c-1.734-0.956-2.366-3.136-1.41-4.869c0.955-1.734,3.136-2.364,4.869-1.411
					l45.509,25.067l45.741-25.07c1.734-0.95,3.914-0.316,4.866,1.42C981.892,1664.894,981.256,1667.073,979.519,1668.024z"/>
			</g>
		</g>
		<g>
			<g>
				
					<ellipse transform="matrix(0.7071 -0.7071 0.7071 0.7071 -1115.2021 1233.3635)" style="fill:#BC842C;" cx="931.2" cy="1962.85" rx="110.385" ry="110.385"/>
				
					<ellipse transform="matrix(0.7071 -0.7071 0.7071 0.7071 -1114.1799 1228.4298)" style="fill:#FFFFFF;" cx="925.756" cy="1959.149" rx="106.684" ry="106.684"/>
			</g>
			<g>
				<path style="fill:#F8B03B;" d="M930.329,1900.409c-26.63,0-48.218,21.588-48.218,48.218c0,26.63,48.218,76.664,48.218,76.664
					s48.218-50.033,48.218-76.664C978.547,1921.997,956.959,1900.409,930.329,1900.409z M930.329,1968.4
					c-8.909,0-16.131-7.222-16.131-16.13c0-8.909,7.222-16.131,16.131-16.131c8.909,0,16.131,7.222,16.131,16.131
					C946.459,1961.178,939.237,1968.4,930.329,1968.4z"/>
			</g>
		</g>
		<g>
			<path style="fill:#FFFFFF;" d="M1150.487,1441.26v-90.881h-31.303v-9.818h73.532v9.818h-31.451v90.881H1150.487z"/>
			<path style="fill:#FFFFFF;" d="M1212.022,1438.343c-4.799-2.779-8.479-6.706-11.037-11.775
				c-2.56-5.069-3.839-11.025-3.839-17.867v-11.96c0-6.989,1.34-13.017,4.024-18.087c2.682-5.069,6.361-8.994,11.037-11.775
				c4.675-2.781,10.065-4.172,16.168-4.172c6.102,0,11.491,1.379,16.168,4.135c4.676,2.757,8.354,6.681,11.037,11.775
				c2.682,5.094,4.024,11.136,4.024,18.124v8.638h-51.752v4.061c0,6.743,1.82,12.366,5.463,16.869
				c3.642,4.504,8.957,6.755,15.946,6.755c3.396,0,6.361-0.503,8.896-1.514c2.535-1.008,4.552-2.288,6.054-3.839
				c1.501-1.55,2.498-3.162,2.99-4.836h11.296c-0.247,1.97-1.034,4.098-2.362,6.386c-1.329,2.288-3.2,4.43-5.611,6.423
				c-2.412,1.992-5.378,3.629-8.896,4.909c-3.519,1.279-7.616,1.919-12.292,1.919
				C1222.591,1442.514,1216.82,1441.125,1212.022,1438.343z M1248.824,1397.111c0-0.246,0-0.48,0-0.701c0-0.222,0-0.431,0-0.628
				c0-4.773-0.838-8.933-2.51-12.477c-1.674-3.543-4.06-6.276-7.161-8.195c-3.101-1.92-6.694-2.879-10.779-2.879
				c-4.135,0-7.74,0.96-10.816,2.879c-3.077,1.919-5.463,4.652-7.161,8.195c-1.698,3.544-2.547,7.704-2.547,12.477
				c0,0.197,0,0.406,0,0.628c0,0.221,0,0.455,0,0.701H1248.824z"/>
			<path style="fill:#FFFFFF;" d="M1283.301,1335.17h10.631v106.089h-10.631V1335.17z"/>
			<path style="fill:#FFFFFF;" d="M1332.876,1438.343c-4.799-2.779-8.479-6.706-11.037-11.775
				c-2.56-5.069-3.839-11.025-3.839-17.867v-11.96c0-6.989,1.34-13.017,4.024-18.087c2.682-5.069,6.361-8.994,11.037-11.775
				c4.675-2.781,10.065-4.172,16.168-4.172c6.102,0,11.491,1.379,16.168,4.135c4.676,2.757,8.354,6.681,11.037,11.775
				c2.682,5.094,4.023,11.136,4.023,18.124v8.638h-51.752v4.061c0,6.743,1.82,12.366,5.463,16.869
				c3.642,4.504,8.957,6.755,15.946,6.755c3.396,0,6.361-0.503,8.896-1.514c2.535-1.008,4.552-2.288,6.054-3.839
				c1.501-1.55,2.498-3.162,2.99-4.836h11.296c-0.247,1.97-1.034,4.098-2.362,6.386c-1.329,2.288-3.2,4.43-5.611,6.423
				c-2.412,1.992-5.378,3.629-8.896,4.909c-3.519,1.279-7.616,1.919-12.292,1.919
				C1343.445,1442.514,1337.675,1441.125,1332.876,1438.343z M1369.679,1397.111c0-0.246,0-0.48,0-0.701c0-0.222,0-0.431,0-0.628
				c0-4.773-0.838-8.933-2.51-12.477c-1.674-3.543-4.06-6.276-7.161-8.195c-3.101-1.92-6.694-2.879-10.779-2.879
				c-4.134,0-7.74,0.96-10.816,2.879c-3.077,1.919-5.463,4.652-7.161,8.195c-1.698,3.544-2.547,7.704-2.547,12.477
				c0,0.197,0,0.406,0,0.628c0,0.221,0,0.455,0,0.701H1369.679z"/>
			<path style="fill:#FFFFFF;" d="M1427.338,1440.854c-3.003-1.108-5.549-2.645-7.641-4.614c-2.092-1.969-3.728-4.257-4.909-6.866
				h-0.517v37.357h-10.631v-102.767h10.114v12.772h0.517c0.738-1.968,1.82-3.802,3.248-5.5c1.427-1.699,3.15-3.187,5.168-4.467
				c2.018-1.279,4.33-2.276,6.94-2.99c2.608-0.713,5.389-1.071,8.342-1.071c6.054,0,11.296,1.342,15.725,4.024
				c4.43,2.683,7.874,6.473,10.336,11.369c2.46,4.899,3.691,10.668,3.691,17.313v14.322c0,6.792-1.255,12.637-3.765,17.534
				c-2.51,4.899-6.029,8.664-10.557,11.296c-4.529,2.633-9.819,3.949-15.873,3.949
				C1433.735,1442.514,1430.339,1441.962,1427.338,1440.854z M1447.234,1430.037c3.125-2.017,5.537-4.933,7.235-8.748
				c1.698-3.814,2.547-8.477,2.547-13.99v-9.229c0-5.511-0.838-10.2-2.51-14.063c-1.674-3.864-4.097-6.803-7.272-8.823
				c-3.175-2.017-7.002-3.026-11.48-3.026c-4.381,0-8.183,0.996-11.406,2.989c-3.224,1.994-5.71,4.788-7.457,8.38
				c-1.747,3.594-2.621,7.801-2.621,12.624v14.322c0,4.43,0.923,8.343,2.768,11.739c1.846,3.396,4.405,6.053,7.678,7.973
				c3.273,1.919,7.075,2.879,11.407,2.879C1440.406,1433.065,1444.108,1432.057,1447.234,1430.037z"/>
			<path style="fill:#FFFFFF;" d="M1491.567,1335.17h10.631v43.189h0.591c0.59-1.92,1.759-4.109,3.507-6.571
				c1.747-2.46,4.319-4.577,7.715-6.348c3.396-1.773,7.776-2.658,13.141-2.658c7.481,0,13.706,2.154,18.678,6.461
				c4.97,4.307,7.457,10.741,7.457,19.305v52.713h-10.631v-49.243c0-4.183-0.751-7.752-2.251-10.705
				c-1.502-2.952-3.63-5.216-6.386-6.791c-2.757-1.575-6.079-2.362-9.967-2.362c-4.824,0-8.859,1.157-12.107,3.469
				c-3.249,2.314-5.685,5.402-7.309,9.266c-1.624,3.865-2.436,8.133-2.436,12.809v43.558h-10.631V1335.17z"/>
			<path style="fill:#FFFFFF;" d="M1625.674,1366.657c4.897,2.634,8.785,6.46,11.665,11.48c2.879,5.021,4.319,11.124,4.319,18.309
				v12.329c0,7.187-1.44,13.289-4.319,18.309c-2.879,5.02-6.768,8.848-11.665,11.48c-4.898,2.633-10.422,3.949-16.574,3.949
				c-6.251,0-11.838-1.303-16.759-3.912c-4.922-2.609-8.798-6.423-11.627-11.443c-2.831-5.021-4.245-11.148-4.245-18.383v-12.255
				c0-6.989,1.414-13.005,4.245-18.052c2.829-5.044,6.718-8.933,11.664-11.664c4.946-2.732,10.52-4.098,16.722-4.098
				C1615.252,1362.707,1620.776,1364.025,1625.674,1366.657z M1597.582,1375.369c-3.298,2.092-5.858,5.046-7.678,8.859
				c-1.821,3.816-2.731,8.306-2.731,13.474v9.892c0,5.267,0.873,9.795,2.621,13.585c1.746,3.791,4.269,6.718,7.567,8.786
				c3.297,2.066,7.235,3.1,11.813,3.1c4.528,0,8.416-1.02,11.665-3.063c3.248-2.042,5.759-4.971,7.53-8.786
				c1.772-3.813,2.658-8.354,2.658-13.622v-9.892c0-5.168-0.911-9.646-2.731-13.437c-1.821-3.789-4.369-6.742-7.641-8.859
				c-3.274-2.116-7.1-3.175-11.48-3.175C1604.744,1372.231,1600.879,1373.278,1597.582,1375.369z"/>
			<path style="fill:#FFFFFF;" d="M1665.208,1363.963h10.631v14.396h0.591c0.688-2.166,1.857-4.455,3.507-6.866
				c1.649-2.411,4.097-4.467,7.346-6.164c3.249-1.699,7.555-2.547,12.92-2.547c7.826,0,14.175,2.129,19.048,6.387
				c4.872,4.257,7.309,10.693,7.309,19.305v52.787h-10.557v-49.391c0-4.134-0.714-7.665-2.141-10.593
				c-1.428-2.929-3.483-5.18-6.164-6.755c-2.683-1.575-5.968-2.362-9.856-2.362c-4.971,0-9.081,1.157-12.329,3.469
				c-3.249,2.314-5.673,5.402-7.272,9.266c-1.6,3.865-2.399,8.133-2.399,12.809v43.558h-10.631V1363.963z"/>
			<path style="fill:#FFFFFF;" d="M1764.616,1438.343c-4.799-2.779-8.479-6.706-11.037-11.775
				c-2.56-5.069-3.839-11.025-3.839-17.867v-11.96c0-6.989,1.34-13.017,4.023-18.087c2.682-5.069,6.361-8.994,11.037-11.775
				c4.675-2.781,10.065-4.172,16.168-4.172c6.102,0,11.491,1.379,16.168,4.135c4.675,2.757,8.354,6.681,11.037,11.775
				c2.682,5.094,4.023,11.136,4.023,18.124v8.638h-51.752v4.061c0,6.743,1.82,12.366,5.463,16.869
				c3.642,4.504,8.957,6.755,15.946,6.755c3.396,0,6.361-0.503,8.896-1.514c2.534-1.008,4.552-2.288,6.054-3.839
				c1.501-1.55,2.498-3.162,2.99-4.836h11.296c-0.247,1.97-1.034,4.098-2.362,6.386c-1.329,2.288-3.2,4.43-5.611,6.423
				c-2.412,1.992-5.378,3.629-8.896,4.909c-3.519,1.279-7.616,1.919-12.292,1.919
				C1775.185,1442.514,1769.415,1441.125,1764.616,1438.343z M1801.418,1397.111c0-0.246,0-0.48,0-0.701c0-0.222,0-0.431,0-0.628
				c0-4.773-0.837-8.933-2.51-12.477c-1.674-3.543-4.061-6.276-7.161-8.195c-3.101-1.92-6.694-2.879-10.779-2.879
				c-4.135,0-7.74,0.96-10.816,2.879c-3.077,1.919-5.463,4.652-7.161,8.195c-1.698,3.544-2.547,7.704-2.547,12.477
				c0,0.197,0,0.406,0,0.628c0,0.221,0,0.455,0,0.701H1801.418z"/>
		</g>
		<g>
			<path style="fill:#FFFFFF;" d="M1178.541,1729.756h-59.357v-100.7h59.357v9.819h-48.578v34.477h45.92v9.746h-45.92v36.766h48.578
				V1729.756z"/>
			<path style="fill:#FFFFFF;" d="M1196.48,1693.212v-9.597h46.511v9.597H1196.48z"/>
			<path style="fill:#FFFFFF;" d="M1264.181,1652.46h10.631v12.329h0.591c0.59-1.771,1.624-3.716,3.101-5.833
				c1.477-2.116,3.642-3.924,6.497-5.427c2.853-1.5,6.668-2.251,11.443-2.251c3.987,0,7.457,0.654,10.409,1.957
				c2.953,1.305,5.377,3.077,7.272,5.316c1.894,2.24,3.26,4.737,4.098,7.493h0.517c0.984-2.509,2.461-4.884,4.429-7.124
				c1.968-2.239,4.54-4.072,7.715-5.5c3.174-1.427,6.951-2.141,11.332-2.141c7.874,0,14.101,2.056,18.678,6.164
				c4.577,4.11,6.866,10.103,6.866,17.978v54.336h-10.631v-51.457c0-3.544-0.664-6.632-1.994-9.266
				c-1.329-2.633-3.285-4.688-5.869-6.164c-2.584-1.477-5.747-2.214-9.487-2.214c-3.544,0-6.707,0.861-9.487,2.583
				c-2.781,1.723-4.972,4.036-6.57,6.94c-1.6,2.904-2.399,6.177-2.399,9.818v49.76h-10.631v-50.94c0-3.544-0.714-6.681-2.141-9.414
				c-1.428-2.731-3.445-4.873-6.053-6.422c-2.61-1.551-5.784-2.325-9.524-2.325c-3.593,0-6.768,0.849-9.524,2.546
				c-2.757,1.699-4.885,4.013-6.386,6.94c-1.502,2.929-2.252,6.238-2.252,9.929v49.686h-10.631V1652.46z"/>
			<path style="fill:#FFFFFF;" d="M1397.142,1724.552c-4.677-4.307-7.014-10.028-7.014-17.165c0-6.694,2.288-12.108,6.866-16.242
				c4.577-4.135,11.271-6.202,20.081-6.202h21.115v-8.343c0-5.463-1.6-9.474-4.799-12.034c-3.2-2.559-7.506-3.839-12.92-3.839
				c-3.643,0-6.607,0.443-8.896,1.33c-2.288,0.886-4.061,2.08-5.316,3.58c-1.255,1.502-2.129,3.163-2.621,4.984h-10.409
				c0.245-3.101,1.071-5.857,2.473-8.269c1.403-2.411,3.297-4.453,5.685-6.127c2.386-1.673,5.229-2.916,8.527-3.728
				c3.297-0.813,6.989-1.219,11.074-1.219c5.118,0,9.806,0.825,14.064,2.473c4.257,1.649,7.653,4.319,10.188,8.01
				c2.534,3.692,3.802,8.564,3.802,14.618v53.377h-10.335v-10.705h-0.517c-1.231,2.019-2.867,3.95-4.91,5.796
				c-2.043,1.845-4.54,3.336-7.493,4.467c-2.953,1.131-6.423,1.698-10.41,1.698
				C1407.895,1731.011,1401.817,1728.859,1397.142,1724.552z M1428.224,1719.162c3.051-1.599,5.474-3.776,7.272-6.533
				c1.796-2.756,2.695-5.881,2.695-9.377v-9.302h-20.967c-5.71,0-9.808,1.255-12.292,3.765c-2.486,2.51-3.728,5.661-3.728,9.45
				c0,4.873,1.685,8.491,5.057,10.853c3.371,2.362,7.272,3.543,11.702,3.543C1421.751,1721.561,1425.171,1720.762,1428.224,1719.162
				z"/>
			<path style="fill:#FFFFFF;" d="M1477.319,1622.707c1.575-1.574,3.47-2.362,5.685-2.362c2.46,0,4.466,0.775,6.017,2.325
				c1.551,1.551,2.325,3.507,2.325,5.87s-0.788,4.319-2.362,5.868c-1.576,1.551-3.569,2.326-5.98,2.326
				c-2.215,0-4.11-0.776-5.685-2.326c-1.576-1.55-2.362-3.506-2.362-5.868C1474.956,1626.227,1475.743,1624.283,1477.319,1622.707z
				 M1477.836,1652.46h10.705v77.297h-10.705V1652.46z"/>
			<path style="fill:#FFFFFF;" d="M1518.292,1623.667h10.631v106.089h-10.631V1623.667z"/>
		</g>
		<g>
			<path style="fill:#FFFFFF;" d="M1177.581,2004.484h-58.397v-100.7h10.853v90.807h47.545V2004.484z"/>
			<path style="fill:#FFFFFF;" d="M1240.15,1929.882c4.897,2.634,8.785,6.46,11.665,11.48c2.879,5.021,4.319,11.123,4.319,18.309
				V1972c0,7.187-1.44,13.289-4.319,18.309c-2.879,5.02-6.768,8.848-11.665,11.48c-4.898,2.633-10.422,3.949-16.574,3.949
				c-6.251,0-11.838-1.303-16.759-3.912c-4.922-2.609-8.798-6.423-11.628-11.443c-2.831-5.021-4.245-11.148-4.245-18.383v-12.255
				c0-6.988,1.414-13.005,4.245-18.051c2.829-5.044,6.718-8.933,11.665-11.664c4.946-2.732,10.52-4.098,16.722-4.098
				C1229.727,1925.932,1235.251,1927.249,1240.15,1929.882z M1212.058,1938.594c-3.298,2.092-5.858,5.046-7.678,8.859
				c-1.821,3.816-2.731,8.306-2.731,13.474v9.892c0,5.268,0.873,9.795,2.621,13.585c1.746,3.791,4.269,6.718,7.567,8.786
				c3.297,2.066,7.235,3.1,11.813,3.1c4.527,0,8.416-1.02,11.665-3.063c3.248-2.042,5.759-4.972,7.53-8.786
				c1.772-3.813,2.658-8.354,2.658-13.622v-9.892c0-5.168-0.911-9.646-2.731-13.437c-1.821-3.789-4.369-6.742-7.641-8.859
				c-3.274-2.116-7.1-3.175-11.48-3.175C1219.219,1935.455,1215.355,1936.502,1212.058,1938.594z"/>
			<path style="fill:#FFFFFF;" d="M1275.919,1959.006c0-6.742,1.279-12.588,3.839-17.533c2.558-4.947,6.201-8.772,10.926-11.48
				c4.725-2.707,10.286-4.061,16.685-4.061c6.349,0,11.639,1.145,15.873,3.433c4.232,2.288,7.444,5.181,9.634,8.675
				c2.19,3.495,3.334,7.039,3.433,10.631h-10.631c-0.295-1.722-1.033-3.592-2.214-5.611s-3.052-3.753-5.611-5.206
				c-2.56-1.451-6.005-2.177-10.336-2.177c-6.792,0-11.985,2.129-15.577,6.387c-3.594,4.257-5.39,10.102-5.39,17.533v12.846
				c0,7.235,1.882,12.969,5.648,17.202c3.766,4.234,8.896,6.349,15.393,6.349c4.183,0,7.542-0.578,10.078-1.736
				c2.535-1.156,4.466-2.645,5.796-4.466c1.329-1.821,2.239-3.74,2.731-5.759h10.631c-0.148,3.396-1.281,6.768-3.396,10.114
				c-2.117,3.347-5.316,6.116-9.598,8.305c-4.282,2.19-9.77,3.285-16.463,3.285c-6.399,0-11.96-1.352-16.685-4.06
				c-4.725-2.707-8.368-6.546-10.926-11.517c-2.56-4.97-3.839-10.877-3.839-17.719V1959.006z"/>
			<path style="fill:#FFFFFF;" d="M1361.411,1999.279c-4.677-4.307-7.014-10.028-7.014-17.165c0-6.694,2.288-12.108,6.866-16.242
				c4.577-4.135,11.271-6.201,20.081-6.201h21.115v-8.343c0-5.462-1.6-9.474-4.799-12.034c-3.2-2.559-7.506-3.839-12.92-3.839
				c-3.643,0-6.607,0.443-8.896,1.33c-2.288,0.886-4.06,2.08-5.316,3.58c-1.255,1.502-2.129,3.163-2.621,4.984h-10.409
				c0.246-3.101,1.071-5.857,2.473-8.269c1.403-2.411,3.297-4.453,5.685-6.127c2.386-1.673,5.229-2.916,8.527-3.728
				c3.297-0.813,6.988-1.219,11.074-1.219c5.118,0,9.806,0.825,14.064,2.473c4.257,1.649,7.653,4.319,10.188,8.01
				c2.535,3.692,3.802,8.564,3.802,14.618v53.376h-10.335v-10.705h-0.517c-1.231,2.019-2.868,3.95-4.91,5.796
				c-2.043,1.845-4.54,3.336-7.493,4.467c-2.953,1.131-6.423,1.698-10.41,1.698
				C1372.163,2005.739,1366.085,2003.587,1361.411,1999.279z M1392.492,1993.89c3.051-1.599,5.474-3.776,7.272-6.533
				c1.796-2.756,2.695-5.881,2.695-9.377v-9.302h-20.967c-5.71,0-9.808,1.255-12.292,3.765c-2.486,2.51-3.728,5.661-3.728,9.45
				c0,4.873,1.685,8.491,5.057,10.853c3.371,2.362,7.272,3.543,11.702,3.543C1386.019,1996.289,1389.439,1995.49,1392.492,1993.89z"
				/>
			<path style="fill:#FFFFFF;" d="M1444.096,1907.918h10.631v19.343h18.161v8.859h-18.161v47.914c0,4.823,0.934,8.036,2.805,9.635
				c1.87,1.6,5.29,2.399,10.262,2.399c0.935,0,2.055-0.049,3.359-0.148c1.303-0.099,2.3-0.196,2.99-0.295v9.007
				c-0.59,0.098-1.92,0.221-3.987,0.369c-2.067,0.148-3.717,0.221-4.946,0.221c-5.906,0-10.373-0.775-13.4-2.325
				c-3.027-1.549-5.082-3.936-6.164-7.161c-1.083-3.222-1.625-7.296-1.625-12.218v-47.397h-12.255v-8.859h12.329V1907.918z"/>
			<path style="fill:#FFFFFF;" d="M1496.809,1897.435c1.575-1.574,3.47-2.362,5.685-2.362c2.46,0,4.466,0.775,6.017,2.325
				s2.325,3.507,2.325,5.87c0,2.362-0.788,4.319-2.362,5.869c-1.576,1.551-3.569,2.327-5.98,2.327c-2.215,0-4.11-0.776-5.685-2.327
				c-1.576-1.55-2.362-3.506-2.362-5.869C1494.446,1900.954,1495.233,1899.01,1496.809,1897.435z M1497.326,1927.188h10.705v77.297
				h-10.705V1927.188z"/>
			<path style="fill:#FFFFFF;" d="M1582.633,1929.882c4.897,2.634,8.785,6.46,11.665,11.48c2.879,5.021,4.319,11.123,4.319,18.309
				V1972c0,7.187-1.44,13.289-4.319,18.309c-2.879,5.02-6.768,8.848-11.665,11.48c-4.898,2.633-10.422,3.949-16.574,3.949
				c-6.251,0-11.838-1.303-16.759-3.912c-4.922-2.609-8.798-6.423-11.628-11.443c-2.831-5.021-4.245-11.148-4.245-18.383v-12.255
				c0-6.988,1.414-13.005,4.245-18.051c2.829-5.044,6.718-8.933,11.665-11.664c4.946-2.732,10.52-4.098,16.722-4.098
				C1572.21,1925.932,1577.735,1927.249,1582.633,1929.882z M1554.541,1938.594c-3.298,2.092-5.858,5.046-7.678,8.859
				c-1.821,3.816-2.731,8.306-2.731,13.474v9.892c0,5.268,0.873,9.795,2.621,13.585c1.746,3.791,4.269,6.718,7.567,8.786
				c3.297,2.066,7.235,3.1,11.813,3.1c4.527,0,8.416-1.02,11.665-3.063c3.248-2.042,5.759-4.972,7.53-8.786
				c1.772-3.813,2.658-8.354,2.658-13.622v-9.892c0-5.168-0.911-9.646-2.731-13.437c-1.821-3.789-4.369-6.742-7.641-8.859
				c-3.274-2.116-7.1-3.175-11.48-3.175C1561.702,1935.455,1557.838,1936.502,1554.541,1938.594z"/>
			<path style="fill:#FFFFFF;" d="M1622.167,1927.188h10.631v14.396h0.591c0.688-2.166,1.857-4.455,3.507-6.866
				c1.649-2.411,4.098-4.467,7.346-6.165c3.249-1.699,7.555-2.547,12.92-2.547c7.826,0,14.175,2.129,19.048,6.386
				c4.872,4.257,7.309,10.693,7.309,19.305v52.787h-10.557v-49.391c0-4.134-0.714-7.665-2.141-10.593
				c-1.428-2.929-3.482-5.18-6.164-6.755c-2.683-1.575-5.968-2.362-9.856-2.362c-4.971,0-9.081,1.157-12.329,3.469
				c-3.249,2.314-5.673,5.402-7.272,9.266c-1.6,3.865-2.399,8.133-2.399,12.809v43.558h-10.631V1927.188z"/>
		</g>
	</g>
	<g id="contact_us">
		<path style="fill:#FFFFFF;" d="M794.329,974.8c0,15.661,2.173,28.962,6.525,39.897c4.349,10.94,10.72,19.236,19.109,24.89
			c8.39,5.657,18.487,8.483,30.297,8.483c9.695,0,18.207-1.894,25.542-5.687c7.332-3.79,13.112-9.042,17.339-15.754
			c4.224-6.712,6.712-14.418,7.458-23.119h48.661c0,0.746,0,1.556,0,2.424c0,0.871,0,1.678,0,2.424
			c-0.871,16.16-5.657,30.422-14.356,42.788c-8.702,12.369-20.387,22.032-35.051,28.991c-14.667,6.959-31.321,10.44-49.965,10.44
			c-22.871,0-42.26-4.631-58.168-13.89c-15.912-9.258-27.998-22.526-36.263-39.804c-8.267-17.276-12.398-37.97-12.398-62.085
			v-31.694c0-24.112,4.163-44.867,12.491-62.27c8.325-17.401,20.476-30.824,36.449-40.271c15.969-9.444,35.266-14.169,57.889-14.169
			c13.919,0,26.815,2.022,38.686,6.06c11.868,4.041,22.215,9.852,31.041,17.431c8.825,7.583,15.815,16.532,20.975,26.848
			c5.156,10.318,8.046,21.813,8.67,34.491c0,0.746,0,1.523,0,2.33c0,0.81,0,1.585,0,2.331h-48.661
			c-0.746-9.071-3.262-17.152-7.55-24.237c-4.288-7.085-10.1-12.646-17.432-16.687c-7.335-4.038-15.786-6.06-25.355-6.06
			c-11.684,0-21.72,2.922-30.11,8.763c-8.39,5.845-14.793,14.295-19.203,25.356c-4.413,11.064-6.618,24.487-6.618,40.27V974.8z"/>
		<path style="fill:#FFFFFF;" d="M1196.29,1036.791c-8.701,17.339-21.161,30.64-37.381,39.898
			c-16.22,9.259-35.703,13.89-58.448,13.89c-22.623,0-42.106-4.631-58.448-13.89c-16.345-9.258-28.869-22.559-37.568-39.898
			c-8.701-17.339-13.051-37.94-13.051-61.804V942.36c0-24.112,4.349-44.839,13.051-62.177c8.698-17.339,21.222-30.637,37.568-39.897
			c16.342-9.258,35.826-13.89,58.448-13.89c22.745,0,42.229,4.661,58.448,13.983c16.22,9.322,28.68,22.653,37.381,39.991
			c8.698,17.339,13.051,38.005,13.051,61.991v32.626C1209.34,998.851,1204.988,1019.452,1196.29,1036.791z M1150.798,901.064
			c-4.973-10.875-11.81-19.046-20.508-24.517c-8.701-5.468-18.644-8.203-29.83-8.203c-11.311,0-21.286,2.735-29.924,8.203
			c-8.64,5.471-15.445,13.643-20.414,24.517c-4.973,10.877-7.458,24.517-7.458,40.923v33.186c0,16.284,2.485,29.894,7.458,40.831
			c4.97,10.939,11.774,19.109,20.414,24.516c8.637,5.407,18.612,8.11,29.924,8.11c11.186,0,21.129-2.704,29.83-8.11
			c8.698-5.407,15.536-13.577,20.508-24.516c4.97-10.937,7.458-24.547,7.458-40.831v-33.186
			C1158.255,925.581,1155.768,911.941,1150.798,901.064z"/>
		<path style="fill:#FFFFFF;" d="M1262.848,1085.731V831.243h42.136l111.489,169.286h2.051V831.243h47.729v254.488h-41.763
			l-112.049-170.218h-2.051v170.218H1262.848z"/>
		<path style="fill:#FFFFFF;" d="M1578.115,1085.731V873.378h-72.152v-42.135h195.014v42.135h-72.338v212.353H1578.115z"/>
		<path style="fill:#FFFFFF;" d="M1701.163,1085.731l85.389-254.488h58.914l85.016,254.488h-53.508l-19.949-65.439h-85.015
			l-19.95,65.439H1701.163z M1813.586,879.904l-31.135,102.913h64.507l-31.135-102.913H1813.586z"/>
		<path style="fill:#FFFFFF;" d="M2003.753,974.8c0,15.661,2.173,28.962,6.525,39.897c4.349,10.94,10.72,19.236,19.109,24.89
			c8.39,5.657,18.487,8.483,30.296,8.483c9.695,0,18.207-1.894,25.542-5.687c7.332-3.79,13.112-9.042,17.339-15.754
			c4.224-6.712,6.712-14.418,7.457-23.119h48.661c0,0.746,0,1.556,0,2.424c0,0.871,0,1.678,0,2.424
			c-0.871,16.16-5.657,30.422-14.356,42.788c-8.702,12.369-20.387,22.032-35.051,28.991c-14.667,6.959-31.322,10.44-49.965,10.44
			c-22.871,0-42.26-4.631-58.168-13.89c-15.912-9.258-27.998-22.526-36.262-39.804c-8.267-17.276-12.399-37.97-12.399-62.085
			v-31.694c0-24.112,4.163-44.867,12.491-62.27c8.325-17.401,20.476-30.824,36.449-40.271c15.969-9.444,35.266-14.169,57.889-14.169
			c13.919,0,26.815,2.022,38.686,6.06c11.868,4.041,22.215,9.852,31.041,17.431c8.825,7.583,15.816,16.532,20.975,26.848
			c5.156,10.318,8.046,21.813,8.67,34.491c0,0.746,0,1.523,0,2.33c0,0.81,0,1.585,0,2.331h-48.661
			c-0.746-9.071-3.262-17.152-7.55-24.237s-10.1-12.646-17.432-16.687c-7.335-4.038-15.786-6.06-25.355-6.06
			c-11.684,0-21.72,2.922-30.11,8.763c-8.39,5.845-14.793,14.295-19.203,25.356c-4.413,11.064-6.618,24.487-6.618,40.27V974.8z"/>
		<path style="fill:#FFFFFF;" d="M2259.174,1085.731V873.378h-72.152v-42.135h195.014v42.135h-72.338v212.353H2259.174z"/>
		<path style="fill:#FFFFFF;" d="M2644.169,1033.529c9.569-9.444,14.355-22.933,14.355-40.458V831.243h50.525v166.675
			c0,18.521-4.226,34.771-12.678,48.754c-8.454,13.983-20.354,24.796-35.703,32.44c-15.351,7.645-33.466,11.466-54.347,11.466
			s-39.029-3.821-54.439-11.466c-15.414-7.644-27.346-18.457-35.796-32.44c-8.454-13.983-12.678-30.232-12.678-48.754V831.243
			h50.525v161.828c0,17.65,4.782,31.167,14.355,40.551c9.57,9.386,22.248,14.076,38.033,14.076
			C2621.982,1047.698,2634.596,1042.976,2644.169,1033.529z"/>
		<path style="fill:#FFFFFF;" d="M2802.825,1016.377c0.87,4.847,2.671,9.353,5.408,13.516c2.732,4.166,6.339,7.802,10.813,10.907
			c4.475,3.108,9.756,5.532,15.848,7.271c6.088,1.742,12.863,2.61,20.321,2.61c10.441,0,19.234-1.491,26.381-4.474
			c7.146-2.983,12.52-7.114,16.126-12.399c3.604-5.281,5.408-11.401,5.408-18.365c0-8.824-3.234-15.753-9.695-20.787
			c-6.465-5.034-16.284-9.104-29.457-12.212l-39.339-9.135c-13.175-2.983-24.61-7.519-34.304-13.61
			c-9.695-6.088-17.152-13.858-22.372-23.305c-5.22-9.444-7.831-20.569-7.831-33.372c0-15.535,4.037-29.085,12.118-40.644
			c8.079-11.559,19.265-20.508,33.559-26.847c14.293-6.339,30.763-9.508,49.406-9.508c19.39,0,35.952,3.234,49.687,9.695
			c13.731,6.464,24.359,15.134,31.88,26.008c7.519,10.877,11.715,22.903,12.585,36.076h-47.728
			c-1.118-6.088-3.636-11.559-7.55-16.406c-3.916-4.848-9.168-8.699-15.755-11.56c-6.59-2.858-14.42-4.288-23.491-4.288
			c-13.796,0-24.641,3.202-32.533,9.602c-7.895,6.403-11.839,14.575-11.839,24.517c0,7.708,3.044,14.047,9.136,19.017
			c6.088,4.973,14.665,8.701,25.729,11.186l39.524,9.135c13.796,3.108,25.79,7.55,35.981,13.331
			c10.19,5.779,18.146,13.394,23.864,22.838c5.718,9.447,8.578,21.318,8.578,35.609c0,15.787-3.948,29.676-11.839,41.669
			c-7.895,11.996-19.328,21.347-34.304,28.059c-14.98,6.712-33.219,10.068-54.72,10.068c-16.16,0-30.268-1.928-42.322-5.78
			c-12.058-3.851-22.157-9.229-30.295-16.127c-8.142-6.898-14.327-14.821-18.551-23.77c-4.228-8.949-6.59-18.457-7.085-28.525
			H2802.825z"/>
	</g>
</g>
</svg>
