<?xml version="1.0" encoding="utf-8"?>
<!-- Generator: Adobe Illustrator 27.5.0, SVG Export Plug-In . SVG Version: 6.00 Build 0)  -->
<svg version="1.1" xmlns="http://www.w3.org/2000/svg" xmlns:xlink="http://www.w3.org/1999/xlink" x="0px" y="0px"
	 viewBox="0 0 600 500" style="enable-background:new 0 0 600 500;" xml:space="preserve">
<g id="BACKGROUND">
	<rect style="fill:#FFFFFF;" width="600" height="500"/>
</g>
<g id="OBJECTS">
	<g>
		<defs>
			<rect id="SVGID_1_" width="600" height="500"/>
		</defs>
		<clipPath id="SVGID_00000047780536107300944040000011928425051291775364_">
			<use xlink:href="#SVGID_1_"  style="overflow:visible;"/>
		</clipPath>
		<g style="clip-path:url(#SVGID_00000047780536107300944040000011928425051291775364_);">
			<circle style="fill:#F0ECD8;" cx="159.108" cy="198.484" r="134.158"/>
			<circle style="fill:#F0ECD8;" cx="440.892" cy="284.47" r="134.158"/>
			<circle style="fill:#F0ECD8;" cx="317.374" cy="138.765" r="111.263"/>
			
				<ellipse transform="matrix(0.7071 -0.7071 0.7071 0.7071 -176.1948 279.102)" style="fill:#F0ECD8;" cx="248.809" cy="352.237" rx="120.261" ry="120.261"/>
		</g>
		<path style="clip-path:url(#SVGID_00000047780536107300944040000011928425051291775364_);fill:#DEDEDE;" d="M51.34,465.639"/>
		<g style="clip-path:url(#SVGID_00000047780536107300944040000011928425051291775364_);">
			<path style="fill:#E79979;" d="M106.534,381.803c-0.098-0.136-0.199-0.271-0.302-0.404c-1.095-1.412-2.659-2.384-4.233-3.239
				c-8.569-4.657-17.431-4.445-24.669,2.214c-4.275,3.933-7.698,8.677-11.037,13.421c-3.68,5.228-7.421,10.848-7.801,17.234
				c-0.405,6.803,3.275,13.499,8.683,17.746c10.355,8.132,32.671,8.934,36.9-6.544C106.936,411.757,113.989,392.155,106.534,381.803
				z"/>
			<path style="fill:#E79979;" d="M211.224,329.731c-1.791,0.346-3.533,1.005-5.246,1.657c-7.734,2.947-15.532,5.694-23.004,9.259
				c-7.71,3.678-15.251,7.7-22.978,11.342c-9.549,4.499-2.744,19.106,6.887,14.568c12.161-5.73,24.271-11.302,36.666-16.499
				c5.353-2.244,13.965-4.767,16.689-10.38c2.653-5.467-0.77-10.328-6.818-10.192C212.679,329.502,211.947,329.591,211.224,329.731z
				"/>
			<path style="fill:#E79979;" d="M194.942,389.581c-6.7,1.491-12.745,4.808-19.32,7.516c-9.662,3.978-19.222,8.195-28.669,12.647
				c-8.919,4.203-2.563,17.846,6.432,13.608c15.705-7.4,32.578-12.849,47.597-21.46c3.089-1.771,6.504-4,7.006-7.513
				c0.312-2.176-0.72-4.498-2.555-5.748C202.133,386.381,198.319,388.829,194.942,389.581z"/>
			<path style="fill:#E79979;" d="M206.091,354.851c-1.606,0.341-3.227,0.905-4.782,1.501c-6.811,2.611-13.576,5.336-20.291,8.178
				c-5.683,2.405-15.357,3.896-13.65,12.287c0.726,3.569,4.042,6.473,7.697,6.74c2.189,0.16,4.335-0.528,6.405-1.236
				c5.971-2.044,11.937-4.159,17.648-6.861c2.94-1.391,5.624-3.163,8.485-4.675c2.438-1.289,4.531-2.252,6.625-4.21
				c1.343-1.256,2.635-2.779,2.785-4.611C217.484,356.178,210.59,353.896,206.091,354.851z"/>
			<path style="fill:#E79979;" d="M107.432,362.009c-5.195,2.249-5.719,8.978-2.698,12.829c15.75-9.743,32.778-16.63,50.114-22.889
				c-14.362,3.595-28.871,6.641-43.508,9.131c2.783-0.474,5.815-2.223,8.464-3.229c2.886-1.095,5.774-2.185,8.666-3.266
				c5.666-2.12,11.344-4.21,17.039-6.254c18.365-6.591,36.914-12.349,55.604-17.932c3.293-0.984,7.542-2.164,9.641-5.143
				c1.995-2.832,1.505-7.238-1.069-9.555c-4.386-3.948-10.657-1.544-15.567-0.194c-5.82,1.6-11.334,3.928-17.059,5.763
				c-5.806,1.861-11.675,3.659-17.492,5.537c-12.177,3.931-24.287,8.071-36.32,12.425c-6.498,2.352-12.974,4.766-19.425,7.244
				C95.049,349.845,99.404,362.112,107.432,362.009z"/>
			<path style="fill:#E79979;" d="M17.584,433.575c2.492-1.47,4.996-2.912,7.51-4.329c14.729-8.3,30.134-15.485,44.876-23.613
				c10.755-5.929,23.048-14.548,35.508-7.336c3.534,2.046,6.254,5.216,8.746,8.438c4.206,5.438,8.024,11.301,10.065,17.839
				c7.345,23.523-17.466,33.867-32.233,46.331c-18.382,15.517-35.409,32.64-50.811,51.119c-7.942,9.528-15.539,19.502-25.174,27.313
				c-10.195,8.265-19.963,10.827-32.555,12.256c-9.542,1.083-21.086,4.94-30.659,2.346c-13.629-3.692-21.817-18.811-21.396-32.925
				c0.422-14.114,7.662-27.141,16.154-38.423C-33.797,467.902-8.856,449.174,17.584,433.575z"/>
			<g>
				<path d="M108.756,464.742l78.945-0.092c4.473-0.005,8.066-3.609,8.026-8.048l-1.645-182.846
					c-0.04-4.439-3.698-8.034-8.171-8.029l-78.945,0.093c-4.473,0.005-8.066,3.608-8.026,8.048l1.645,182.846
					C100.625,461.134,104.302,464.747,108.756,464.742z"/>
				<path style="fill:#F2F5F8;" d="M108.375,461.694l79.653-0.093c2.627-0.003,4.738-2.119,4.714-4.727l-1.655-183.96
					c-0.023-2.607-2.172-4.719-4.799-4.716l-79.653,0.093c-2.627,0.003-4.737,2.119-4.714,4.727l1.655,183.96
					C103.599,459.575,105.759,461.697,108.375,461.694z"/>
				<path d="M169.7,266.319l-0.365,3.829c-0.239,2.504-2.633,4.424-5.52,4.427l-34.591,0.041c-2.887,0.003-5.316-1.911-5.6-4.414
					l-0.434-3.828L169.7,266.319z"/>
				<polygon style="fill:#E8CB61;" points="103.281,424.164 192.446,424.059 191.433,311.365 102.267,311.469 				"/>
			</g>
			<path style="fill:#E79979;" d="M73.801,385.087c5.079-6.42,8.467-13.712,10.753-21.586c2.413-8.314,4.256-16.139,4.17-24.9
				c-0.046-4.68,4.095-6.869,8.216-4.475c3.783,2.198,4.283,6.454,5.503,10.279c0.943,2.957,1.893,5.945,2.158,9.031
				c0.517,6.02-1.607,11.747-3.593,17.304c-1.881,5.262-2.567,10.157-3.724,15.528c-0.911,4.227-1.839,8.506-3.788,12.364
				c-1.919,3.799-4.813,7.104-8.336,9.517c-2.785,1.908-6.267,3.289-9.547,2.386c-2.888-0.795-5.106-3.29-6.113-6.093
				c-2.077-5.782-0.915-13.2,2.981-17.75C72.933,386.163,73.373,385.628,73.801,385.087z"/>
			<path style="fill:none;stroke:#2D2D2D;stroke-linecap:round;stroke-miterlimit:10;" d="M100.659,379.148
				c4.56,18.18-3.951,37.442-18.192,49.578"/>
			<path style="fill:none;stroke:#2D2D2D;stroke-linecap:round;stroke-miterlimit:10;" d="M100.696,427.421
				c-2.378-1.647-5.647-0.836-8.241,0.407"/>
		</g>
		<g style="clip-path:url(#SVGID_00000047780536107300944040000011928425051291775364_);">
			<g>
				<g>
					<path style="fill:#6BA7B3;" d="M484.522,343.421c-0.114,3.207-2.805,5.715-6.013,5.601c-3.207-0.114-5.715-2.805-5.601-6.012
						c0.007-0.202,0.053-0.391,0.08-0.587c-2.281,0.3-4.496,0.816-6.622,1.534c0.121,0.178,0.255,0.342,0.358,0.536
						c1.505,2.835,0.428,6.352-2.406,7.857c-2.834,1.505-6.352,0.428-7.857-2.406c-0.101-0.19-0.161-0.389-0.239-0.585
						c-1.811,1.387-3.484,2.947-4.995,4.655c0.208,0.098,0.42,0.181,0.62,0.306c2.721,1.702,3.547,5.287,1.845,8.008
						c-1.702,2.721-5.287,3.547-8.008,1.845c-0.204-0.127-0.375-0.284-0.557-0.431c-0.877,2.095-1.555,4.295-2.016,6.578
						c0.253-0.025,0.504-0.059,0.766-0.05c3.207,0.113,5.715,2.805,5.601,6.013c-0.114,3.207-2.806,5.715-6.013,5.601
						c-0.268-0.009-0.521-0.062-0.778-0.106c0.294,2.332,0.817,4.595,1.547,6.767c0.229-0.169,0.456-0.339,0.714-0.477
						c2.835-1.505,6.352-0.428,7.857,2.406c1.505,2.834,0.428,6.352-2.406,7.857c-0.26,0.138-0.53,0.231-0.799,0.326
						c1.416,1.858,3.013,3.572,4.767,5.115c0.119-0.281,0.242-0.561,0.409-0.828c1.702-2.721,5.287-3.547,8.008-1.845
						c2.721,1.702,3.547,5.287,1.845,8.008c-0.166,0.265-0.363,0.497-0.563,0.726c2.14,0.892,4.388,1.581,6.722,2.04
						c-0.041-0.314-0.074-0.631-0.063-0.959c0.114-3.207,2.806-5.715,6.013-5.601c3.207,0.114,5.715,2.805,5.602,6.013
						c-0.011,0.314-0.066,0.613-0.125,0.911c2.358-0.308,4.645-0.85,6.837-1.603c-0.19-0.25-0.376-0.505-0.529-0.792
						c-1.505-2.834-0.428-6.352,2.406-7.857c2.834-1.505,6.352-0.428,7.857,2.406c0.142,0.267,0.238,0.543,0.335,0.82
						c1.849-1.427,3.549-3.037,5.082-4.8c-0.272-0.117-0.545-0.235-0.803-0.397c-2.721-1.702-3.547-5.287-1.845-8.008
						c1.702-2.721,5.287-3.547,8.008-1.845c0.239,0.149,0.443,0.329,0.652,0.505c0.868-2.12,1.535-4.347,1.979-6.656
						c-0.272,0.029-0.543,0.064-0.824,0.054c-3.207-0.113-5.715-2.806-5.601-6.013c0.113-3.207,2.805-5.715,6.013-5.601
						c0.248,0.009,0.482,0.06,0.72,0.098c-0.313-2.307-0.85-4.545-1.59-6.692c-0.2,0.141-0.392,0.292-0.614,0.41
						c-2.834,1.505-6.352,0.428-7.857-2.406c-1.505-2.834-0.428-6.352,2.406-7.857c0.196-0.104,0.401-0.166,0.602-0.246
						c-1.397-1.801-2.967-3.463-4.684-4.963c-0.095,0.199-0.174,0.404-0.294,0.596c-1.702,2.721-5.287,3.547-8.008,1.845
						c-2.721-1.702-3.547-5.287-1.845-8.008c0.111-0.177,0.249-0.323,0.374-0.483c-2.076-0.852-4.254-1.51-6.513-1.956
						C484.496,343,484.529,343.205,484.522,343.421z M501.304,378.17c-0.463,13.07-11.433,23.29-24.503,22.827
						c-13.069-0.463-23.289-11.433-22.827-24.503c0.463-13.07,11.433-23.29,24.503-22.827
						C491.546,354.13,501.766,365.1,501.304,378.17z"/>
				</g>
				<path style="fill:#1B2258;" d="M503.992,372c-2.938-14.544-17.16-23.985-31.704-21.047
					c-14.544,2.938-23.985,17.159-21.047,31.703c2.938,14.544,17.16,23.988,31.704,21.05
					C497.488,400.767,506.93,386.543,503.992,372z M481.196,395.049c-9.771,1.974-19.325-4.371-21.299-14.142
					c-1.974-9.771,4.369-19.325,14.14-21.299c9.771-1.974,19.326,4.369,21.299,14.14
					C497.31,383.519,490.967,393.075,481.196,395.049z"/>
			</g>
		</g>
		<g style="clip-path:url(#SVGID_00000047780536107300944040000011928425051291775364_);">
			<g>
				<g>
					<path style="fill:#6BA7B3;" d="M395.747,352.633c-0.156,4.409-3.857,7.857-8.266,7.701c-4.409-0.156-7.857-3.857-7.701-8.266
						c0.01-0.277,0.073-0.538,0.11-0.807c-3.135,0.412-6.18,1.122-9.104,2.109c0.166,0.244,0.35,0.471,0.492,0.738
						c2.07,3.897,0.588,8.733-3.308,10.802c-3.897,2.07-8.733,0.589-10.802-3.308c-0.139-0.261-0.221-0.535-0.328-0.804
						c-2.49,1.906-4.79,4.051-6.867,6.4c0.286,0.135,0.578,0.249,0.853,0.421c3.74,2.34,4.876,7.269,2.536,11.009
						c-2.34,3.74-7.269,4.876-11.009,2.536c-0.28-0.175-0.515-0.391-0.765-0.593c-1.205,2.88-2.138,5.905-2.772,9.044
						c0.348-0.034,0.693-0.082,1.053-0.069c4.409,0.156,7.857,3.857,7.701,8.266c-0.156,4.409-3.857,7.857-8.266,7.701
						c-0.368-0.013-0.717-0.086-1.07-0.146c0.405,3.206,1.123,6.318,2.127,9.303c0.314-0.232,0.627-0.467,0.982-0.656
						c3.897-2.069,8.733-0.588,10.802,3.308c2.069,3.896,0.588,8.733-3.308,10.802c-0.357,0.19-0.728,0.318-1.098,0.449
						c1.947,2.554,4.143,4.91,6.553,7.032c0.164-0.386,0.333-0.772,0.562-1.139c2.34-3.741,7.269-4.876,11.009-2.536
						c3.74,2.34,4.876,7.268,2.536,11.009c-0.228,0.365-0.5,0.683-0.774,0.998c2.942,1.227,6.032,2.173,9.242,2.804
						c-0.056-0.432-0.102-0.868-0.086-1.318c0.156-4.409,3.857-7.857,8.266-7.701c4.409,0.156,7.857,3.857,7.701,8.266
						c-0.015,0.431-0.091,0.843-0.171,1.253c3.242-0.423,6.385-1.168,9.399-2.204c-0.262-0.343-0.518-0.695-0.727-1.089
						c-2.069-3.896-0.588-8.733,3.308-10.802c3.896-2.069,8.732-0.588,10.802,3.308c0.195,0.366,0.328,0.747,0.46,1.127
						c2.541-1.962,4.879-4.176,6.986-6.599c-0.374-0.161-0.748-0.323-1.104-0.545c-3.74-2.34-4.876-7.269-2.536-11.009
						c2.34-3.74,7.268-4.876,11.009-2.536c0.328,0.205,0.609,0.453,0.897,0.695c1.193-2.915,2.111-5.976,2.721-9.151
						c-0.374,0.04-0.747,0.088-1.133,0.074c-4.409-0.156-7.857-3.857-7.701-8.266c0.156-4.409,3.857-7.857,8.266-7.7
						c0.34,0.012,0.662,0.082,0.99,0.135c-0.431-3.172-1.168-6.248-2.186-9.2c-0.275,0.194-0.538,0.402-0.844,0.563
						c-3.896,2.07-8.733,0.589-10.802-3.308c-2.07-3.897-0.588-8.733,3.308-10.802c0.269-0.143,0.551-0.229,0.827-0.338
						c-1.921-2.476-4.079-4.761-6.44-6.823c-0.131,0.274-0.239,0.555-0.404,0.819c-2.34,3.74-7.268,4.876-11.009,2.536
						c-3.74-2.34-4.876-7.269-2.536-11.009c0.152-0.243,0.342-0.443,0.515-0.664c-2.854-1.172-5.849-2.076-8.953-2.689
						C395.712,352.054,395.758,352.337,395.747,352.633z M418.819,400.406c-0.637,17.968-15.718,32.018-33.686,31.382
						c-17.968-0.636-32.018-15.718-31.382-33.686c0.636-17.968,15.718-32.018,33.686-31.382
						C405.405,367.356,419.456,382.438,418.819,400.406z"/>
				</g>
				<path style="fill:#1B2258;" d="M391.176,423.611c-13.433,2.714-26.568-6.009-29.282-19.442
					c-2.713-13.433,6.007-26.568,19.44-29.281c13.433-2.714,26.569,6.007,29.282,19.439
					C413.329,407.76,404.608,420.898,391.176,423.611z"/>
			</g>
		</g>
		<g style="clip-path:url(#SVGID_00000047780536107300944040000011928425051291775364_);">
			<g>
				<path style="fill:#E84B4B;" d="M134.365,391.137c-14.711-8.563-24.389-25.094-24.655-42.114l5.738-0.09
					c0.235,15.052,8.794,29.671,21.804,37.244L134.365,391.137z"/>
			</g>
			<g>
				<path style="fill:#E84B4B;" d="M116.826,368.089c1.227-3.323,3.066-6.868,5.889-9.152c0.62-0.502,0.889-1.316,0.691-2.089
					c-0.893-3.499-1.655-7.031-2.265-10.59c-0.114-0.668-0.669-1.171-1.345-1.216c-3.034-0.2-6.098,0.061-9.051,0.787
					c-0.237,0.058-0.489,0.129-0.649,0.314c-0.135,0.156-0.182,0.369-0.217,0.572c-0.215,1.229-0.203,2.497,0.034,3.721l6.869,17.78
					C116.796,368.174,116.81,368.131,116.826,368.089z"/>
			</g>
			<g>
				<path style="fill:#E84B4B;" d="M124.9,376.761c-0.626,0.154-1.31,0.306-2.008,0.401c1.338,3.248,3.444,6.112,5.708,8.776
					c2.036,2.396,4.135,4.852,7.245,5.807c0.198,0.061,0.408,0.116,0.609,0.066c0.237-0.059,0.414-0.251,0.574-0.437
					c1.977-2.291,3.593-4.889,4.789-7.668c0.278-0.646,0.073-1.397-0.492-1.818c-3.069-2.289-6.034-4.716-8.899-7.256
					c-0.499-0.442-1.229-0.518-1.793-0.163C128.881,375.57,126.911,376.266,124.9,376.761z"/>
			</g>
		</g>
		
			<ellipse transform="matrix(0.7071 -0.7071 0.7071 0.7071 -12.0093 346.4886)" style="clip-path:url(#SVGID_00000047780536107300944040000011928425051291775364_);fill:#ABDEDA;" cx="412.244" cy="187.741" rx="136.623" ry="136.623"/>
		<polygon style="clip-path:url(#SVGID_00000047780536107300944040000011928425051291775364_);fill:#ABDEDA;" points="
			295.73,116.191 127.161,365.55 427.244,323.634 		"/>
		<path style="clip-path:url(#SVGID_00000047780536107300944040000011928425051291775364_);fill:#1B2258;" d="M567.757,180.18
			c-6.031-0.653-10.832-5.347-11.62-11.361l-0.03-0.226c-0.788-6.009,2.634-11.779,8.286-13.969l2.387-0.925l-3.732-13.93
			l-2.534,0.393c-5.988,0.929-11.835-2.355-14.159-7.951l-0.082-0.197c-2.329-5.61-0.516-12.086,4.387-15.672l2.06-1.506
			l-7.211-12.489l-2.397,1.058c-5.541,2.446-12.034,0.787-15.722-4.018c-0.042-0.055-0.085-0.111-0.128-0.166
			c-3.699-4.806-3.628-11.518,0.174-16.243l1.643-2.042l-10.198-10.198l-2.046,1.646c-4.724,3.801-11.432,3.874-16.238,0.178
			c-0.055-0.042-0.11-0.084-0.164-0.126c-4.809-3.687-6.47-10.182-4.023-15.725l1.06-2.402l-12.489-7.211l-1.543,2.11
			c-3.578,4.892-10.034,6.699-15.632,4.377c-0.066-0.027-0.131-0.054-0.197-0.081c-5.603-2.314-8.892-8.161-7.963-14.151
			l0.401-2.583l-13.93-3.733l-0.957,2.47c-2.19,5.651-7.957,9.066-13.965,8.275c-0.068-0.009-0.137-0.018-0.205-0.027
			c-6.005-0.782-10.692-5.576-11.344-11.596l-0.286-2.644h-14.421l-0.285,2.633c-0.652,6.023-5.342,10.817-11.35,11.597
			c-0.074,0.009-0.147,0.019-0.221,0.029c-6,0.788-11.758-2.624-13.944-8.267l-0.957-2.47l-13.93,3.733l0.403,2.596
			c0.928,5.981-2.355,11.821-7.949,14.134c-0.072,0.03-0.143,0.059-0.215,0.089c-5.593,2.323-12.047,0.518-15.622-4.371
			l-1.551-2.121l-12.49,7.211l1.064,2.411c2.445,5.539,0.786,12.033-4.018,15.719l-0.179,0.138
			c-4.804,3.687-11.507,3.61-16.225-0.186l-2.053-1.652l-10.198,10.198l1.629,2.024c3.805,4.729,3.879,11.448,0.179,16.26
			l-0.131,0.17c-3.69,4.799-10.181,6.455-15.719,4.01l-2.387-1.054l-7.211,12.489l2.056,1.504
			c4.902,3.585,6.715,10.058,4.389,15.667l-0.079,0.191c-2.323,5.604-8.176,8.893-14.171,7.963l-2.523-0.392l-3.733,13.93
			l2.385,0.924c5.66,2.193,9.087,7.973,8.295,13.992l-0.027,0.205c-0.791,6.014-5.593,10.706-11.623,11.36l-2.553,0.276v14.421
			l2.514,0.272c6.043,0.654,10.851,5.361,11.636,11.388l0.027,0.206c0.783,6.016-2.645,11.788-8.302,13.98l-2.352,0.911l3.733,13.93
			l2.456-0.381c6.003-0.931,11.865,2.364,14.189,7.977l0.086,0.207c2.322,5.608,0.508,12.077-4.391,15.66l-2.012,1.471l7.211,12.489
			l2.289-1.011c5.553-2.451,12.063-0.787,15.758,4.029l0.138,0.18c3.695,4.816,3.618,11.534-0.187,16.264l-1.569,1.95l10.198,10.198
			l1.921-1.546c4.74-3.814,11.475-3.889,16.299-0.18l0.171,0.131c4.811,3.699,6.472,10.206,4.021,15.758l-1,2.266l12.49,7.211
			l1.441-1.971c3.586-4.903,10.06-6.718,15.672-4.393l0.22,0.091c5.612,2.325,8.906,8.185,7.974,14.188l-0.374,2.413l13.93,3.733
			l0.891-2.3c2.194-5.661,7.973-9.09,13.993-8.3l0.225,0.03c6.026,0.79,10.729,5.6,11.383,11.641l0.266,2.452h14.421l0.264-2.442
			c0.654-6.043,5.36-10.854,11.388-11.642l0.23-0.03c6.018-0.786,11.795,2.642,13.988,8.301l0.887,2.29l13.93-3.733l-0.375-2.414
			c-0.931-6.001,2.361-11.861,7.97-14.188l0.21-0.087c5.617-2.33,12.099-0.515,15.689,4.394l1.439,1.968l12.489-7.211l-1.005-2.276
			c-2.451-5.551-0.789-12.058,4.022-15.755l0.182-0.139c4.817-3.701,11.541-3.626,16.274,0.182l1.938,1.56l10.198-10.198
			l-1.556-1.934c-3.811-4.736-3.887-11.464-0.185-16.286l0.126-0.165c3.699-4.819,10.214-6.484,15.772-4.03l2.273,1.003
			l7.211-12.489l-2.008-1.469c-4.898-3.582-6.713-10.049-4.394-15.657l0.087-0.209c2.322-5.615,8.183-8.911,14.187-7.98l2.456,0.381
			l3.732-13.93l-2.379-0.922c-5.649-2.189-9.07-7.954-8.287-13.961l0.03-0.23c0.785-6.018,5.588-10.716,11.621-11.37l2.537-0.275
			v-14.421L567.757,180.18z M553.289,192.835c-2.814,77.949-68.285,138.859-146.234,136.046
			c-77.949-2.814-138.859-68.285-136.045-146.234c2.814-77.949,68.285-138.859,146.234-136.046
			C495.193,49.415,556.103,114.886,553.289,192.835z"/>
		<g style="clip-path:url(#SVGID_00000047780536107300944040000011928425051291775364_);">
			<path style="fill:#35A4B0;" d="M481.739,196.219c15.007-32.525,37.82-59.434,70.561-62.925
				c19.271-2.055,33.94,12.571,29.67,31.935c-4.693,21.284-30.921,28.349-48.207,36.342c-36.275,16.773-64.606,49.89-75.559,88.325
				C460.076,264.054,467.29,227.533,481.739,196.219z"/>
			<path style="fill:#35A4B0;" d="M454.672,150.468c1.684-19.472,5.298-38.823,16.492-54.514
				c11.17-15.658,38.534-24.737,39.254,2.64c0.194,7.36-2.918,14.407-6.631,20.764c-14.824,25.379-27.948,49.567-38.772,77.003
				c-4.902,12.424-9.635,25.178-15.048,37.399c1.198-22.167,2.396-44.335,3.595-66.503
				C453.861,161.708,454.186,156.083,454.672,150.468z"/>
			<path style="fill:#35A4B0;" d="M373.345,118.083c-2.156-7.452-5.798-16.103-13.441-17.434c-4.845-0.844-9.696,1.777-13.195,5.233
				c-12.993,12.833-10.797,34.99-1.835,50.902c14.595,25.915,39.559,42.6,48.488,72.035c1.681-13.147-2.031-24.893-3.971-37.661
				C385.641,166.483,380.282,142.056,373.345,118.083z"/>
			<path style="fill:none;stroke:#000000;stroke-miterlimit:10;" d="M544.424,169.1c-32.956,17.31-59.263,46.925-72.566,81.692"/>
			<path style="fill:none;stroke:#000000;stroke-miterlimit:10;" d="M484.005,114.444c-11.09,30.006-22.18,60.012-33.271,90.019"/>
			<path style="fill:none;stroke:#000000;stroke-miterlimit:10;" d="M357.857,132.68c8.798,13.578,15.119,28.755,18.56,44.563"/>
		</g>
		<g style="clip-path:url(#SVGID_00000047780536107300944040000011928425051291775364_);">
			<defs>
				
					<ellipse id="SVGID_00000065795101782032825320000004081630117592126394_" transform="matrix(0.7071 -0.7071 0.7071 0.7071 -12.0093 346.4886)" cx="412.244" cy="187.741" rx="136.623" ry="136.623"/>
			</defs>
			<clipPath id="SVGID_00000121969310537544467720000015184354002098429076_">
				<use xlink:href="#SVGID_00000065795101782032825320000004081630117592126394_"  style="overflow:visible;"/>
			</clipPath>
			<g style="clip-path:url(#SVGID_00000121969310537544467720000015184354002098429076_);">
				<path style="fill:#E3AE3D;" d="M489.685,160.157c-0.019-0.088-0.038-0.176-0.057-0.264c0.015,0.075,0.03,0.15,0.045,0.225
					c-0.02-0.099-0.032-0.159-0.045-0.227c0,0,0,0.001,0,0.001c-0.014-0.072-0.029-0.143-0.043-0.214
					C489.619,159.839,489.652,159.998,489.685,160.157z"/>
			</g>
			<g style="clip-path:url(#SVGID_00000121969310537544467720000015184354002098429076_);">
				<path style="fill:#E79979;" d="M285.413,264.452c-8.77,17.238-15.362,35.585-19.519,54.475
					c-1.538,6.985-2.492,15.773,2.716,21.016c5.146,5.181,18.008,8.794,25.046,9.763c9.111,1.255,19.362-1.448,24.625-8.989
					c3.106-4.449,4.137-9.972,5.227-15.288c4.91-23.95,12.52-47.342,22.608-69.611c5.56-12.273,33.023-48.233,5.248-53.137
					c-5.259-0.928-10.688,0.414-15.581,2.552c-13.081,5.715-23.021,16.793-31.43,28.327
					C297.23,243.331,290.896,253.675,285.413,264.452z"/>
				<path style="fill:#E8CB61;" d="M446.287,226.097c-0.13-18.294-8.388-36.634-2.879-54.863h-44.487
					c-0.18,5.043-0.559,10.084-1.678,15.128c-0.132,0.595-1.371,0.835-2.564,0.782c-4.422,62.113,1.724,124.294-1.593,186.422
					h54.996c0.711-28.457,1.587-56.898,0.146-85.399C447.182,267.476,446.435,246.792,446.287,226.097z"/>
				<path style="fill:#E84B4B;" d="M504.617,257.47c-0.362-1.902-0.734-3.802-1.115-5.7c-5.483-27.313-9.049-69.237-36.7-84.097
					c-9.357-5.028-22.228-6.48-34.656-7.068c0.042,1.882,10.648,10.719,10.642,12.604c0.478,0.259-5.556,12.356-5.881,13.822
					c-3.297,14.888-2.796,25.625-1.67,42.241c1.26,18.584,0.554,37.247,0.966,55.869c0.619,28.031-0.035,55.725-0.062,83.58
					c-0.001,0.446,0.016,0.938,0.316,1.268c0.254,0.28,0.65,0.372,1.02,0.449c12.694,2.631,25.728,3.606,38.672,2.912
					c5.573-0.299,11.522-2.259,16.952-2.258c5.038,0.001,9.814,1.766,14.988,1.432c2.323-0.15,4.958-0.704,6.11-2.727
					c0.656-1.151,0.677-2.544,0.677-3.869C514.867,329.56,511.418,293.196,504.617,257.47z"/>
				<path style="fill:#E84B4B;" d="M405.808,287.8c0.021-34.966-8.87-71.155-6.5-106.132c-0.089-2.397,8.36-4.096,8.39-6.498
					c-0.218-0.17-0.371-0.43-0.366-0.813c0.07-4.883,0.098-9.77,0.132-14.655c0.006-0.908-17.576-0.049-19.325,0.289
					c-6.155,1.19-12.145,4.054-16.544,8.628c-8.098,8.42-20.965,19.406-26.113,29.974c-2.467,5.065-3.148,10.787-3.786,16.385
					c-5.717,50.194-10.793,100.461-15.227,150.785c-0.137,1.548-0.169,3.362,1.029,4.353c3.401,2.814,22.966,2.706,28.214,3.285
					c7.647,0.844,15.447,1.604,23.147,1.714c6.243,0.09,12.488-0.169,18.703-0.765c2.558-0.246,4.921,0.033,6.283-1.922
					c0.912-1.309,1.072-5.266,1.247-6.881C407.872,339.942,405.792,313.52,405.808,287.8z"/>
				<path style="fill:#E79979;" d="M444.34,160.486c-2.751-1.926-4.927-4.867-6.305-7.937c-3.489-7.769-2.865-22.312-1.202-30.37
					c1.676-8.119,3.43-8.347,0.519-16.266c-2.551-6.936-6.921-13.252-12.779-17.918c-7.812-6.221-20.672-2.932-30.067-1.859
					c-1.372,8.663-2.109,17.426-2.203,26.196c-0.104,9.627,2.228,16.964,9.577,23.18c1.476,1.248,1.361,1.818,1.338,3.887
					c-0.053,4.688-0.332,9.377-0.793,14.043c-0.489,4.939-7.768,4.787-11.728,5.339c-0.647,0.09-1.313,0.196-1.865,0.538
					c-3.155,1.955,10.466,19.371,12.996,21.505c5.453,4.601,13.078,6.834,20.678,6.055c6.622-0.679,12.774-3.846,17.575-8.286
					c2.293-2.12,5.124-4.675,6.546-7.476c1.422-2.801,1.992-5.727,3.946-8.394C448.281,162.609,446.181,161.775,444.34,160.486z"/>
				<path style="fill:#E84B4B;" d="M390.954,166.225c-2.243-3.155-5.375-5.363-9.624-5.953
					c-19.796-2.752-41.481,8.864-55.719,21.545c-17.409,15.505-29.421,36.021-41.142,56.173c-4.839,8.32-9.677,16.64-14.516,24.959
					c10.435-1.376,18.949,0.833,29.402,2.132c8.736,1.086,17.505,1.901,26.284,2.563c7.101,0.535,14.211,0.964,21.324,1.293
					c5.564-13.914,12.922-27.059,21.819-39.118c7.754-10.51,21.76-17.117,25.347-30.425
					C396.582,190.292,397.037,174.779,390.954,166.225z"/>
				<path d="M387.461,87.098c0.199-0.334,0.421-0.655,0.657-0.96c3.578-4.63,8.526-3.813,13.408-5.631
					c5.162-1.922,9.25-6.581,15.214-5.894c4.965,0.572,10.714,3.78,15.191,5.892c4.396,2.074,11.303,5.271,13.511,9.968
					c1.963,4.175,1.162,10.718,0.237,15.104c-0.883,4.186-2.144,11.814-8.247,10.344c-2.674-0.644-4.955-2.244-6.004-4.874
					c-0.596-1.493-0.723-3.124-0.936-4.717c-0.557-4.176,0.394-10.212-3.166-13.234c-2.176-1.848-5.342-2.077-8.131-1.469
					c-2.789,0.608-5.36,1.937-8.038,2.924c-5.252,1.934-10.986,2.544-16.527,1.757c-1.863-0.265-3.751-0.704-5.319-1.745
					c-1.567-1.041-2.771-2.787-2.734-4.669C386.597,88.903,386.951,87.956,387.461,87.098z"/>
				<path style="fill:#E79979;" d="M432.607,101.364c-2.475,0.042-4.263,1.167-5.493,2.845c0.368,1.071,0.908,2.103,1.392,3.118
					c0.585,1.228,1.077,2.422,1.508,3.71c0.792,2.368,1.341,4.877,1.639,7.381c0.026,0,0.051,0.003,0.077,0.002
					c4.999-0.085,8.919-4.264,9.366-8.826C441.554,104.926,437.27,101.285,432.607,101.364z"/>
				<path d="M430.79,107.014c1.083-0.643,2.492-0.275,3.33,0.515c0.968,0.912,1.369,2.344,1.032,3.685
					c-0.337,1.341-1.402,2.549-2.741,3.11"/>
				<path style="fill:none;stroke:#000000;stroke-width:0.5;stroke-miterlimit:10;" d="M487.723,234.497"/>
				<path style="fill:none;stroke:#000000;stroke-width:0.5;stroke-miterlimit:10;" d="M500.846,257.491"/>
				<path d="M408.435,137.337c-2.363,0.244-4.813-0.503-6.638-2.024l0.006,0.082c1.143,1.144,1.383,2.989,1.35,4.642
					c-0.025,1.251-0.228,2.482-0.372,3.719c5.287-0.787,10.046-4.682,11.738-9.757C413.044,135.861,410.798,137.093,408.435,137.337
					z"/>
				<path style="fill:#993131;" d="M391.571,198.958c0,0,8.217,18.117,8.12,16.858c-0.097-1.259,5.003-24.086,5.003-24.086
					L391.571,198.958z"/>
				<path style="fill:#E84B4B;" d="M442.594,167.658c1.079-1.679,2.386-2.988,3.955-3.768c2.6-1.294,5.624-1.353,8.527-1.292
					c10.037,0.212,19.448,1.679,28.88,4.781c0.722,0.238,1.447,0.468,2.173,0.695c8.406,2.632,16.76,4.746,23.914,10.085
					c6.316,4.714,11.789,10.46,16.206,16.988c4.411,6.52,7.764,13.759,9.871,21.344c0.507,1.824,3.956,23.371,2.468,23.127
					c-5.056-0.829-11.698-2.117-17.531-3.163c-14.337-2.571-28.967-3.502-43.514-2.768c-4.438,0.224-9.724,0.444-13.093-2.854
					c-3.18-3.113-5.983-6.538-9.315-9.549c-6.413-5.797-13.411-11.801-15.752-20.486
					C437.504,193.826,437.177,176.084,442.594,167.658z"/>
				<polygon style="fill:#993131;" points="446.009,203.801 434.231,212.035 432.812,188.329 				"/>
				<path d="M448.495,185.94c0.612-5.055,1.501-10.089,1.905-15.167c0.247-3.103,0.364-6.268,1.14-9.278
					c-2.763-0.208-5.448-1.256-7.714-2.893c-0.761,1.327-1.289,2.916-1.861,4.146c-3.729,8.021-6.747,16.373-9.002,24.926
					c-0.057,0.215-0.109,0.435-0.152,0.655c3.218,3.415,5.921,7.309,8.666,11.104c1.51,2.086,3.14,4.074,4.777,6.057
					C446.852,198.955,447.71,192.433,448.495,185.94z"/>
				<path d="M401.315,182.343c-1.445-4.394-3.018-8.745-4.716-13.048c-1.35-3.376-1.897-7.999-3.614-11.397
					c-1.567,0.13-3.039,0.445-4.713,0.626c-1.245,0.135-2.465,0.096-3.656-0.123c-0.282,1.856-0.154,3.895-0.075,5.184
					c0.295,4.818,1.002,9.633,1.69,14.406c1.301,9.022,2.896,18.004,3.964,27.059c4.79-4.488,9.546-9.013,14.499-13.32
					C403.677,188.289,401.685,183.466,401.315,182.343z"/>
				<path style="fill:#FFFFFF;" d="M397.121,121.383c1.881,2.615,5.361,3.971,8.515,3.317c3.154-0.654,5.808-3.282,6.494-6.429"/>
				<path style="fill:none;stroke:#000000;stroke-miterlimit:10;" d="M417.4,121.543c6.095,1.147,12.51,0.537,18.28-1.738"/>
				<path style="fill:#E84B4B;" d="M444.224,101.618c1.123-8.108,0.082-16.019-5.511-22.992c-2.418-3.014-4.955-5.231-8.773-6.223
					c-5.216-1.355-10.662-1.818-16.032-1.361c-0.71,0.06-1.451,0.148-2.042,0.553c-1.28,0.88-0.857,2.546,0.594,2.87
					c7.784,1.737,15.324,2.569,20.487,9.492c3.999,5.363,4.654,11.363,4.129,17.503c-4.837,1.538-8.366,6.313-8.366,11.973
					c0,6.902,5.246,12.498,11.717,12.498c6.471,0,11.717-5.595,11.717-12.498C452.143,107.949,448.828,103.303,444.224,101.618z"/>
				<ellipse cx="440.426" cy="113.432" rx="7.524" ry="8.026"/>
				<path d="M433.038,85.783c-0.159-1.469-1.249-2.646-2.318-3.666c-6.467-6.165-17.287-13.582-26.679-10.576
					c-2.572,0.823-4.946,2.781-5.517,5.421c-0.227,1.048-0.19,2.218-0.843,3.068c-0.534,0.696-1.411,1.013-2.218,1.359
					c-2.987,1.278-12.133,6.922-5.174,9.867c2.071,0.877,4.488,0.242,6.469-0.823c1.981-1.065,3.729-2.54,5.765-3.495"/>
				<path d="M422.715,122.013c0,2.637-2.138,4.775-4.775,4.775c-2.637,0-4.775-2.138-4.775-4.775c0-2.637,2.138-4.775,4.775-4.775
					C420.578,117.239,422.715,119.376,422.715,122.013z"/>
			</g>
			
				<path style="clip-path:url(#SVGID_00000121969310537544467720000015184354002098429076_);fill:none;stroke:#000000;stroke-miterlimit:10;" d="
				M335.743,271.689c2.653-14.116,4.336-28.414,5.033-42.76"/>
			<g style="clip-path:url(#SVGID_00000121969310537544467720000015184354002098429076_);">
				<path style="fill:#35A4B0;" d="M442.319,299.513H317.36c-1.292,0-2.339-1.047-2.339-2.339l0,0c0-1.292,1.047-2.339,2.339-2.339
					h124.96c1.292,0,2.339,1.047,2.339,2.339l0,0C444.658,298.466,443.611,299.513,442.319,299.513z"/>
				<polygon style="fill:#35A4B0;" points="422.161,299.513 312.571,299.513 296.142,236.156 405.732,236.156 				"/>
				
					<ellipse transform="matrix(0.7741 -0.633 0.633 0.7741 -86.9785 286.4856)" style="fill:none;stroke:#1B2258;stroke-width:2;stroke-miterlimit:10;" cx="357.977" cy="265.13" rx="6.059" ry="7.045"/>
			</g>
			<g style="clip-path:url(#SVGID_00000121969310537544467720000015184354002098429076_);">
				
					<line style="fill:none;stroke:#000000;stroke-width:2;stroke-miterlimit:10;" x1="665.731" y1="482.911" x2="617.5" y2="301.021"/>
				
					<line style="fill:none;stroke:#000000;stroke-width:2;stroke-miterlimit:10;" x1="293.633" y1="482.911" x2="341.864" y2="301.021"/>
				
					<line style="fill:none;stroke:#000000;stroke-width:3;stroke-miterlimit:10;" x1="684.604" y1="300.125" x2="273.596" y2="300.125"/>
			</g>
		</g>
		<path style="clip-path:url(#SVGID_00000047780536107300944040000011928425051291775364_);fill:#E79979;" d="M441.313,205.572
			c-0.935,13.221-1.067,26.55,0.307,40.526c1.181,12.014,5.235,28.239,14.004,36.537c9.445,8.937,23.798,6.43,34.11-1.491
			c12.489-9.593,7.535-33.025,4.101-46.066c-2.35-8.926-5.496-17.62-8.637-26.299c-5.384-14.876-10.767-29.753-16.151-44.63
			c-4.759-13.149-4.959-28.448-11.263-40.958c-1.189-2.359-2.623-4.68-4.737-6.264c-2.114-1.584-5.037-2.307-7.457-1.247
			c-5.773,2.529-6.311,12.062-5.592,17.385c0.788,5.826,3.179,11.296,5.578,16.663c0.641,1.434,1.292,2.894,1.477,4.453
			c0.144,1.21,0.001,2.434-0.162,3.641C444.685,174.195,442.428,189.807,441.313,205.572z"/>
		<path style="clip-path:url(#SVGID_00000047780536107300944040000011928425051291775364_);fill:#E79979;" d="M505.472,294.564
			c4.477-3.999,8.406-8.811,12.151-13.49c3.577-4.468,6.836-9.198,9.638-14.191c4.684-8.346,8.621-18.009,9.669-27.596
			c-14.228-3.071-32.59-6.363-46.49-6.391c-1.358,1.733-2.631,3.549-3.935,5.098c-0.515-1.82-1.39-3.451-2.525-4.893
			c-0.97,0.066-1.941,0.138-2.913,0.238c-1.2,0.123-1.36-1.741-0.163-1.864c0.49-0.05,0.978-0.079,1.467-0.12
			c-3.557-3.376-8.671-5.4-13.646-5.956c-4.322-0.483-8.91-0.078-12.621,2.19c-2.089,1.276-3.81,3.089-5.241,5.075
			c-10.409,14.455-8.143,29.071-0.883,44.525c3.229,6.874,6.89,13.716,12.355,18.99c10.237,9.877,24.288,9.692,36.171,3.995
			C500.884,298.373,503.246,296.553,505.472,294.564z"/>
		
			<path style="clip-path:url(#SVGID_00000047780536107300944040000011928425051291775364_);fill:none;stroke:#000000;stroke-miterlimit:10;" d="
			M492.104,227.875c4.282,13.305,7.391,26.986,9.28,40.834"/>
		
			<path style="clip-path:url(#SVGID_00000047780536107300944040000011928425051291775364_);fill:none;stroke:#000000;stroke-miterlimit:10;" d="
			M477.366,295.733c3.671,3.015,9.658,2.647,12.932-0.796"/>
		
			<path style="clip-path:url(#SVGID_00000047780536107300944040000011928425051291775364_);fill:none;stroke:#1B2258;stroke-width:2;stroke-miterlimit:10;" d="
			M278.094,37.367c0-4.291,3.479-7.77,7.77-7.77c4.291,0,7.77,3.479,7.77,7.77"/>
		
			<circle style="clip-path:url(#SVGID_00000047780536107300944040000011928425051291775364_);fill:none;stroke:#1B2258;stroke-width:2;stroke-miterlimit:10;" cx="312.281" cy="399.957" r="3.108"/>
		
			<path style="clip-path:url(#SVGID_00000047780536107300944040000011928425051291775364_);fill:none;stroke:#1B2258;stroke-width:2;stroke-miterlimit:10;" d="
			M544.338,342.978c0,3.057-2.479,5.536-5.536,5.536c-3.058,0-5.536-2.479-5.536-5.536s2.479-5.536,5.536-5.536
			C541.859,337.442,544.338,339.921,544.338,342.978z"/>
		
			<path style="clip-path:url(#SVGID_00000047780536107300944040000011928425051291775364_);fill:none;stroke:#1B2258;stroke-width:2;stroke-miterlimit:10;" d="
			M533.46,354.633c0,2.003-1.623,3.626-3.626,3.626c-2.003,0-3.626-1.623-3.626-3.626"/>
		
			<path style="clip-path:url(#SVGID_00000047780536107300944040000011928425051291775364_);fill:none;stroke:#1B2258;stroke-width:2;stroke-miterlimit:10;" d="
			M54.449,226.61c1.986-2.626,5.135-4.322,8.681-4.322c6.008,0,10.878,4.87,10.878,10.878c0,6.008-4.87,10.878-10.878,10.878
			c-3.572,0-6.741-1.721-8.725-4.38"/>
		
			<path style="clip-path:url(#SVGID_00000047780536107300944040000011928425051291775364_);fill:none;stroke:#1B2258;stroke-width:2;stroke-miterlimit:10;" d="
			M297.777,374.958c0,3.072-2.49,5.562-5.562,5.562c-3.072,0-5.562-2.49-5.562-5.562c0-3.072,2.49-5.562,5.562-5.562
			C295.287,369.396,297.777,371.886,297.777,374.958z"/>
		
			<path style="clip-path:url(#SVGID_00000047780536107300944040000011928425051291775364_);fill:none;stroke:#1B2258;stroke-width:2;stroke-miterlimit:10;" d="
			M69.864,273.568c0,2.003-1.623,3.626-3.626,3.626s-3.626-1.623-3.626-3.626s1.623-3.626,3.626-3.626
			S69.864,271.566,69.864,273.568z"/>
		<g style="clip-path:url(#SVGID_00000047780536107300944040000011928425051291775364_);">
			<path style="fill:none;stroke:#1B2258;stroke-width:2;stroke-miterlimit:10;" d="M177.082,139.262
				c2.546-2.948,7-3.274,9.948-0.728c2.948,2.546,3.274,7,0.728,9.948"/>
			<path style="fill:none;stroke:#1B2258;stroke-width:2;stroke-miterlimit:10;" d="M175.533,153.137
				c0,1.001-0.812,1.813-1.813,1.813c-1.001,0-1.813-0.812-1.813-1.813c0-1.001,0.812-1.813,1.813-1.813
				C174.721,151.324,175.533,152.136,175.533,153.137z"/>
			<circle style="fill:none;stroke:#1B2258;stroke-width:2;stroke-miterlimit:10;" cx="209.202" cy="158.576" r="6.734"/>
		</g>
		<g style="clip-path:url(#SVGID_00000047780536107300944040000011928425051291775364_);">
			<rect x="60.114" y="102.527" style="fill:#6BA7B3;" width="86.045" height="51.627"/>
			<polyline style="fill:none;stroke:#171616;stroke-width:0.5;stroke-linecap:round;stroke-miterlimit:10;" points="
				145.312,104.704 102.29,130.517 59.268,104.704 			"/>
		</g>
		<g style="clip-path:url(#SVGID_00000047780536107300944040000011928425051291775364_);">
			<rect x="41.047" y="125.94" style="fill:#E3A81E;" width="87.305" height="52.383"/>
			<polyline style="fill:none;stroke:#171616;stroke-width:0.5;stroke-linecap:round;stroke-miterlimit:10;" points="
				127.493,128.148 83.841,154.34 40.188,128.148 			"/>
		</g>
		<path style="clip-path:url(#SVGID_00000047780536107300944040000011928425051291775364_);fill:#F0ECD8;" d="M179.676,444.575
			h-69.065c-4.196,0-7.597-3.401-7.597-7.597l0,0c0-4.196,3.401-7.597,7.597-7.597h69.065c4.196,0,7.597,3.401,7.597,7.597l0,0
			C187.274,441.174,183.872,444.575,179.676,444.575z"/>
		<g style="clip-path:url(#SVGID_00000047780536107300944040000011928425051291775364_);">
			<polygon style="fill:#E3A81E;" points="111.228,430.8 112.978,434.344 116.889,434.913 114.059,437.672 114.727,441.568 
				111.228,439.728 107.729,441.568 108.398,437.672 105.567,434.913 109.479,434.344 			"/>
			<polygon style="fill:#E3A81E;" points="128.258,430.8 130.007,434.344 133.919,434.913 131.089,437.672 131.757,441.568 
				128.258,439.728 124.759,441.568 125.427,437.672 122.597,434.913 126.509,434.344 			"/>
			<polygon style="fill:#E3A81E;" points="145.288,430.8 147.037,434.344 150.949,434.913 148.118,437.672 148.786,441.568 
				145.288,439.728 141.789,441.568 142.457,437.672 139.627,434.913 143.538,434.344 			"/>
			<polygon style="fill:#E3A81E;" points="162.317,430.8 164.067,434.344 167.979,434.913 165.148,437.672 165.816,441.568 
				162.317,439.728 158.819,441.568 159.487,437.672 156.656,434.913 160.568,434.344 			"/>
			<polygon style="fill:#ABDEDA;" points="179.347,430.8 181.097,434.344 185.008,434.913 182.178,437.672 182.846,441.568 
				179.347,439.728 175.848,441.568 176.517,437.672 173.686,434.913 177.598,434.344 			"/>
		</g>
		<g style="clip-path:url(#SVGID_00000047780536107300944040000011928425051291775364_);">
			<path style="fill:#E3A81E;" d="M303.742,127.497h-61.657c-17.737,0-32.115-14.378-32.115-32.115v0
				c0-17.737,14.378-32.115,32.115-32.115h61.657c17.737,0,32.115,14.378,32.115,32.115v0
				C335.857,113.118,321.479,127.497,303.742,127.497z"/>
			<path style="fill:#E3A81E;" d="M302.515,87.111c-3.182,31.327,2.741,65.492,24.692,88.067
				c-20.093-15.201-34.708-37.493-40.636-61.98"/>
			<g>
				<path style="fill:#1B2258;" d="M238.982,88.731c0,1.16-0.417,2.074-1.252,2.742c-0.835,0.668-1.997,1.002-3.485,1.002
					c-1.371,0-2.584-0.258-3.639-0.773v-2.531c0.867,0.387,1.601,0.659,2.202,0.817s1.15,0.237,1.648,0.237
					c0.598,0,1.056-0.114,1.376-0.343c0.319-0.229,0.479-0.568,0.479-1.02c0-0.252-0.07-0.476-0.211-0.673
					c-0.141-0.195-0.347-0.385-0.62-0.566c-0.273-0.182-0.828-0.472-1.666-0.87c-0.785-0.369-1.374-0.724-1.767-1.063
					c-0.393-0.34-0.706-0.735-0.94-1.187c-0.234-0.451-0.352-0.979-0.352-1.582c0-1.137,0.385-2.03,1.156-2.681
					c0.77-0.65,1.835-0.976,3.195-0.976c0.668,0,1.305,0.079,1.912,0.237c0.606,0.158,1.241,0.381,1.903,0.668l-0.879,2.118
					c-0.686-0.281-1.252-0.478-1.701-0.589c-0.448-0.111-0.889-0.167-1.323-0.167c-0.516,0-0.911,0.12-1.187,0.36
					c-0.275,0.24-0.413,0.554-0.413,0.94c0,0.24,0.056,0.45,0.167,0.628c0.111,0.18,0.288,0.352,0.532,0.52
					c0.243,0.166,0.819,0.467,1.727,0.9c1.201,0.574,2.025,1.15,2.47,1.727C238.759,87.186,238.982,87.893,238.982,88.731z"/>
				<path style="fill:#1B2258;" d="M251.77,79.45v8.314c0,0.949-0.212,1.781-0.637,2.496c-0.425,0.715-1.039,1.263-1.841,1.644
					c-0.803,0.381-1.752,0.571-2.848,0.571c-1.652,0-2.936-0.423-3.85-1.269c-0.914-0.847-1.371-2.006-1.371-3.477V79.45h2.716
					v7.866c0,0.99,0.199,1.717,0.598,2.18c0.398,0.463,1.058,0.694,1.978,0.694c0.891,0,1.537-0.232,1.938-0.699
					c0.401-0.465,0.602-1.196,0.602-2.192V79.45H251.77z"/>
				<path style="fill:#1B2258;" d="M263.793,83.458c0,1.383-0.432,2.44-1.296,3.173c-0.864,0.732-2.093,1.099-3.687,1.099h-1.169
					v4.57h-2.725V79.45h4.104c1.559,0,2.744,0.336,3.555,1.006C263.388,81.128,263.793,82.128,263.793,83.458z M257.641,85.497
					h0.897c0.838,0,1.465-0.165,1.881-0.496c0.416-0.331,0.624-0.813,0.624-1.446c0-0.639-0.174-1.11-0.523-1.415
					c-0.349-0.305-0.895-0.457-1.639-0.457h-1.239V85.497z"/>
				<path style="fill:#1B2258;" d="M275.096,83.458c0,1.383-0.432,2.44-1.296,3.173c-0.864,0.732-2.093,1.099-3.687,1.099h-1.169
					v4.57h-2.725V79.45h4.104c1.559,0,2.744,0.336,3.555,1.006C274.69,81.128,275.096,82.128,275.096,83.458z M268.944,85.497h0.896
					c0.838,0,1.465-0.165,1.881-0.496c0.416-0.331,0.624-0.813,0.624-1.446c0-0.639-0.174-1.11-0.523-1.415
					c-0.349-0.305-0.895-0.457-1.639-0.457h-1.239V85.497z"/>
				<path style="fill:#1B2258;" d="M289.185,85.857c0,2.127-0.527,3.762-1.582,4.904s-2.566,1.714-4.535,1.714
					c-1.969,0-3.48-0.571-4.535-1.714c-1.055-1.143-1.582-2.783-1.582-4.922c0-2.139,0.529-3.771,1.586-4.899
					c1.058-1.128,2.574-1.692,4.548-1.692c1.975,0,3.485,0.568,4.531,1.705C288.662,82.089,289.185,83.724,289.185,85.857z
					 M279.807,85.857c0,1.436,0.272,2.517,0.817,3.243c0.545,0.727,1.359,1.09,2.443,1.09c2.174,0,3.261-1.444,3.261-4.333
					c0-2.895-1.081-4.342-3.243-4.342c-1.084,0-1.901,0.364-2.452,1.095C280.082,83.339,279.807,84.422,279.807,85.857z"/>
				<path style="fill:#1B2258;" d="M294.573,87.369v4.931h-2.725V79.45h3.744c1.746,0,3.038,0.318,3.876,0.953
					c0.838,0.637,1.257,1.602,1.257,2.896c0,0.756-0.208,1.428-0.624,2.018c-0.416,0.588-1.005,1.05-1.767,1.384
					c1.934,2.889,3.193,4.755,3.779,5.599h-3.023l-3.067-4.931H294.573z M294.573,85.154h0.879c0.861,0,1.497-0.144,1.907-0.431
					c0.41-0.287,0.615-0.738,0.615-1.354c0-0.609-0.209-1.043-0.628-1.301c-0.419-0.258-1.068-0.387-1.947-0.387h-0.826V85.154z"/>
				<path style="fill:#1B2258;" d="M308.688,92.299h-2.725V81.717h-3.489V79.45h9.703v2.268h-3.489V92.299z"/>
				<path style="fill:#1B2258;" d="M243.948,101.533c-1.025,0-1.819,0.386-2.382,1.155c-0.563,0.771-0.844,1.845-0.844,3.222
					c0,2.865,1.075,4.298,3.226,4.298c0.902,0,1.995-0.226,3.278-0.677v2.285c-1.055,0.439-2.232,0.659-3.533,0.659
					c-1.869,0-3.299-0.566-4.289-1.701c-0.99-1.133-1.485-2.761-1.485-4.882c0-1.336,0.243-2.506,0.729-3.511
					c0.486-1.005,1.185-1.775,2.096-2.313c0.911-0.535,1.979-0.804,3.204-0.804c1.248,0,2.502,0.302,3.762,0.905l-0.879,2.215
					c-0.48-0.229-0.964-0.428-1.45-0.598C244.894,101.618,244.417,101.533,243.948,101.533z"/>
				<path style="fill:#1B2258;" d="M257.36,112.299h-7.4V99.45h7.4v2.232h-4.676v2.821h4.351v2.232h-4.351v3.313h4.676V112.299z"/>
				<path style="fill:#1B2258;" d="M271.44,112.299h-3.463l-5.59-9.721h-0.079c0.111,1.717,0.167,2.941,0.167,3.674v6.047h-2.435
					V99.45h3.437l5.581,9.624h0.061c-0.088-1.67-0.132-2.851-0.132-3.542V99.45h2.452V112.299z"/>
				<path style="fill:#1B2258;" d="M279.631,112.299h-2.725v-10.582h-3.489V99.45h9.703v2.268h-3.489V112.299z"/>
				<path style="fill:#1B2258;" d="M287.823,107.369v4.931h-2.725V99.45h3.744c1.746,0,3.038,0.318,3.876,0.953
					c0.838,0.637,1.257,1.602,1.257,2.896c0,0.756-0.208,1.428-0.624,2.018c-0.416,0.588-1.005,1.05-1.767,1.384
					c1.934,2.889,3.193,4.755,3.779,5.599h-3.023l-3.067-4.931H287.823z M287.823,105.154h0.879c0.861,0,1.497-0.144,1.907-0.431
					c0.41-0.287,0.615-0.738,0.615-1.354c0-0.609-0.209-1.043-0.628-1.301c-0.419-0.258-1.068-0.387-1.947-0.387h-0.826V105.154z"/>
				<path style="fill:#1B2258;" d="M304.381,112.299h-7.4V99.45h7.4v2.232h-4.676v2.821h4.351v2.232h-4.351v3.313h4.676V112.299z"/>
			</g>
		</g>
		<g style="clip-path:url(#SVGID_00000047780536107300944040000011928425051291775364_);">
			<path style="fill:#E84B4B;" d="M130.403,248.446h56.626c13.839,0,25.057-11.219,25.057-25.058v-0.49
				c0-13.839-11.219-25.057-25.057-25.057h-56.626c-13.839,0-25.058,11.219-25.058,25.057v0.49
				C105.346,237.227,116.564,248.446,130.403,248.446z"/>
			<path style="fill:#E84B4B;" d="M146.523,243.462c-5.912-0.078-8.012,0.753-13.724-0.714c5.19,20.982-1.109,31.787-13.468,46.619
				c20.093-10.698,26.417-26.417,28.835-45.41l-1.205-0.457C146.815,243.485,146.669,243.479,146.523,243.462z"/>
			<g>
				<path style="fill:#1B2258;" d="M150.053,228.788h-2.716v-5.546h-5.089v5.546h-2.725v-12.85h2.725v5.036h5.089v-5.036h2.716
					V228.788z"/>
				<path style="fill:#1B2258;" d="M160.696,228.788h-7.4v-12.85h7.4v2.232h-4.676v2.821h4.351v2.232h-4.351v3.314h4.676V228.788z"
					/>
				<path style="fill:#1B2258;" d="M163.377,228.788v-12.85h2.725v10.6h5.212v2.25H163.377z"/>
				<path style="fill:#1B2258;" d="M182.423,219.947c0,1.383-0.432,2.44-1.296,3.173c-0.864,0.732-2.093,1.099-3.687,1.099h-1.169
					v4.57h-2.725v-12.85h4.104c1.559,0,2.744,0.336,3.555,1.006C182.017,217.616,182.423,218.616,182.423,219.947z M176.27,221.986
					h0.896c0.838,0,1.465-0.165,1.881-0.496c0.416-0.331,0.624-0.814,0.624-1.446c0-0.639-0.174-1.11-0.523-1.415
					c-0.349-0.305-0.895-0.457-1.639-0.457h-1.239V221.986z"/>
			</g>
		</g>
		<g style="clip-path:url(#SVGID_00000047780536107300944040000011928425051291775364_);">
			<path style="fill:#E84B4B;" d="M243.923,422.691v-1.989c0-1.719,0.367-3.215,1.102-4.487c0.734-1.272,2.078-2.624,4.031-4.058
				c1.882-1.344,3.122-2.436,3.723-3.279c0.6-0.842,0.899-1.782,0.899-2.821c0-1.165-0.43-2.052-1.289-2.661
				c-0.86-0.608-2.061-0.913-3.602-0.913c-2.688,0-5.751,0.878-9.19,2.634l-2.93-5.886c3.995-2.239,8.232-3.359,12.711-3.359
				c3.691,0,6.625,0.888,8.802,2.661c2.177,1.773,3.265,4.139,3.265,7.094c0,1.972-0.447,3.674-1.344,5.106
				c-0.896,1.434-2.598,3.046-5.106,4.837c-1.72,1.273-2.809,2.24-3.266,2.902c-0.456,0.664-0.685,1.532-0.685,2.607v1.612H243.923z
				 M243.064,431.882c0-1.504,0.402-2.642,1.209-3.412c0.806-0.77,1.979-1.156,3.521-1.156c1.486,0,2.638,0.395,3.453,1.183
				c0.815,0.788,1.223,1.917,1.223,3.386c0,1.416-0.412,2.531-1.236,3.346c-0.824,0.815-1.971,1.223-3.439,1.223
				c-1.505,0-2.67-0.398-3.494-1.195S243.064,433.333,243.064,431.882z"/>
		</g>
		<g style="clip-path:url(#SVGID_00000047780536107300944040000011928425051291775364_);">
			<path style="fill:#1B2258;" d="M174.458,91.048c0-1.505,0.402-2.643,1.209-3.413c0.807-0.77,1.98-1.156,3.521-1.156
				c1.487,0,2.638,0.395,3.453,1.183c0.815,0.789,1.223,1.917,1.223,3.386c0,1.416-0.412,2.531-1.236,3.346
				c-0.824,0.815-1.971,1.223-3.439,1.223c-1.505,0-2.67-0.399-3.493-1.196C174.871,93.624,174.458,92.5,174.458,91.048z
				 M182.494,81.857h-6.558l-1.37-26.256h9.298L182.494,81.857z"/>
		</g>
		<polygon style="clip-path:url(#SVGID_00000047780536107300944040000011928425051291775364_);fill:#E84B4B;" points="
			112.302,53.943 116.719,62.893 126.596,64.328 119.449,71.295 121.136,81.132 112.302,76.488 103.467,81.132 105.155,71.295 
			98.007,64.328 107.885,62.893 		"/>
		<polygon style="clip-path:url(#SVGID_00000047780536107300944040000011928425051291775364_);fill:#E3A81E;" points="
			558.03,289.066 561.733,296.569 570.012,297.772 564.021,303.611 565.435,311.857 558.03,307.964 550.625,311.857 
			552.039,303.611 546.048,297.772 554.327,296.569 		"/>
		<polygon style="clip-path:url(#SVGID_00000047780536107300944040000011928425051291775364_);fill:#E3A81E;" points="
			318.721,361.584 322.424,369.086 330.703,370.289 324.712,376.129 326.126,384.375 318.721,380.482 311.316,384.375 
			312.73,376.129 306.739,370.289 315.018,369.086 		"/>
		
			<path style="clip-path:url(#SVGID_00000047780536107300944040000011928425051291775364_);fill:none;stroke:#000000;stroke-width:0.5;stroke-miterlimit:10;stroke-dasharray:4;" d="
			M138.35,360.866c13.483-4.415,26.582-11.035,37.197-20.556c9.299-8.34,19.503-21.776,18.917-35.006
			c-0.295-6.666-5.81-11.85-12.224-7.614c-5.833,3.852-7.176,11.645-5.699,18.044c3.47,15.034,19.221,21.691,33.338,18.031
			c28.993-7.516,39.661-48.628,25.773-72.764c-2.38-4.137-9.646-15.314-14.683-8.44c-4.458,6.084-2.939,16.897-1.334,23.679
			c3.544,14.966,12.554,31.158,25.062,40.428c13.646,10.113,52.825,10.41,43.65-15.649c-2.285-6.489-6.852-11.902-9.916-18.064
			c-2.155-4.333-7.293-14.498-3.61-19.077c6.06-7.534,10.629-3.761,12.747,1.662"/>
	</g>
</g>
</svg>
